<!-- icon666.com - MILLIONS vector ICONS FREE --><svg id="Capa_1" enable-background="new 0 0 512 512" viewBox="0 0 512 512" xmlns="http://www.w3.org/2000/svg"><g><g><path d="m484.297 350.955h-456.594c-11.158 0-20.203-9.045-20.203-20.203v-303.049c0-11.158 9.045-20.203 20.203-20.203h456.594c11.158 0 20.203 9.045 20.203 20.203v303.049c0 11.158-9.045 20.203-20.203 20.203z" fill="#62a4fb"></path></g><g><path d="m484.297 7.5h-28.285c11.158 0 20.203 9.045 20.203 20.203v303.049c0 11.158-9.045 20.203-20.203 20.203h28.285c11.158 0 20.203-9.045 20.203-20.203v-303.049c0-11.158-9.045-20.203-20.203-20.203z" fill="#5392f9"></path></g><g><path d="m116.598-36.947h278.805v432.35h-278.805z" fill="#91dafa" transform="matrix(0 1 -1 0 435.228 -76.772)"></path></g><g><path d="m319.64 166.096h278.805v26.264h-278.805z" fill="#75cff9" transform="matrix(0 1 -1 0 638.27 -279.815)"></path></g><g><g><circle cx="256" cy="179.228" fill="#e175a5" r="70.711"></circle></g><g><path d="m294.555 119.964c7.231 11.092 11.448 24.327 11.448 38.555 0 39.053-31.659 70.711-70.711 70.711-14.228 0-27.463-4.217-38.555-11.448 12.616 19.353 34.438 32.156 59.263 32.156 39.053 0 70.711-31.659 70.711-70.711 0-24.824-12.803-46.646-32.156-59.263z" fill="#de5791"></path></g><g><g><path d="m233.409 206.741v-54.7c0-4.198 4.51-6.852 8.18-4.813l49.23 27.35c3.776 2.098 3.776 7.529 0 9.627l-49.23 27.35c-3.67 2.038-8.18-.616-8.18-4.814z" fill="#f5fcff"></path></g></g></g><g><path d="m427.728 334.793v120.607c0 27.117-21.983 49.1-49.1 49.1-24.099 0-44.636-17.49-48.473-41.281l-3.443-21.349h-141.423l-3.443 21.349c-3.837 23.792-24.374 41.281-48.473 41.281-27.117 0-49.1-21.983-49.1-49.1v-120.607c0-22.316 18.091-40.407 40.407-40.407h262.642c22.315 0 40.406 18.091 40.406 40.407z" fill="#9facba"></path></g><g><path d="m387.991 294.403c-15.761 47.61-47.963 99.197-93.909 145.143-.782.782-1.571 1.549-2.357 2.324h34.985l3.443 21.349c3.837 23.792 24.374 41.281 48.473 41.281 27.117 0 49.1-21.983 49.1-49.1v-120.607c.002-22.091-17.729-40.03-39.735-40.39z" fill="#8d9ca8"></path></g><g><path d="m197.411 350.955h-24.244v-24.244h-32.326v24.244h-24.243v32.325h24.243v24.244h32.326v-24.244h24.244z" fill="#62a4fb"></path></g><g><g><circle cx="354.996" cy="342.874" fill="#e175a5" r="16.163"></circle></g><g><circle cx="354.996" cy="391.362" fill="#b7e546" r="16.163"></circle></g><g><circle cx="379.24" cy="367.118" fill="#f8e883" r="16.163"></circle></g><g><circle cx="330.752" cy="367.118" fill="#75cff9" r="16.163"></circle></g></g><g><path d="m484.3 0h-456.6c-15.274 0-27.7 12.426-27.7 27.7v43.69c0 4.142 3.358 7.5 7.5 7.5s7.5-3.358 7.5-7.5v-43.69c0-7.003 5.697-12.7 12.7-12.7h456.6c7.003 0 12.7 5.697 12.7 12.7v303.05c0 7.008-5.697 12.71-12.7 12.71h-49.07v-8.67c0-2.958-.284-5.849-.799-8.66h37.739c4.142 0 7.5-3.358 7.5-7.5v-62.63c0-4.142-3.358-7.5-7.5-7.5s-7.5 3.358-7.5 7.5v55.13h-35.719c-8.255-14.462-23.818-24.24-41.632-24.24h-262.639c-17.814 0-33.376 9.778-41.632 24.24h-35.718v-263.8h417.34v173.67c0 4.142 3.358 7.5 7.5 7.5s7.5-3.358 7.5-7.5v-181.17c0-4.142-3.358-7.5-7.5-7.5h-432.34c-4.142 0-7.5 3.358-7.5 7.5v278.8c0 4.142 3.358 7.5 7.5 7.5h37.739c-.516 2.811-.799 5.702-.799 8.66v8.67h-49.07c-7.003 0-12.7-5.702-12.7-12.71v-224.36c0-4.142-3.358-7.5-7.5-7.5s-7.5 3.358-7.5 7.5v224.36c0 15.279 12.426 27.71 27.7 27.71h49.07v31.56c0 4.142 3.358 7.5 7.5 7.5s7.5-3.358 7.5-7.5v-55.23c0-18.141 14.763-32.9 32.91-32.9h262.64c18.147 0 32.91 14.759 32.91 32.9v120.61c0 22.938-18.662 41.6-41.6 41.6-9.878 0-19.458-3.526-26.981-9.933-7.515-6.392-12.521-15.285-14.095-25.04l-3.44-21.35c-.585-3.635-3.723-6.307-7.404-6.307h-141.42c-3.682 0-6.819 2.672-7.404 6.307l-3.44 21.348c-3.272 20.266-20.547 34.975-41.076 34.975-11.104 0-21.553-4.328-29.417-12.183-7.856-7.857-12.183-18.304-12.183-29.417v-30.38c0-4.142-3.358-7.5-7.5-7.5s-7.5 3.358-7.5 7.5v30.38c0 15.12 5.887 29.334 16.58 40.026 10.7 10.688 24.913 16.574 40.02 16.574 27.931 0 51.433-20.012 55.884-47.587l2.424-15.043h128.644l2.424 15.045c2.142 13.274 8.955 25.377 19.182 34.074 10.228 8.713 23.263 13.511 36.702 13.511 31.209 0 56.6-25.391 56.6-56.6v-96.94h49.07c15.274 0 27.7-12.431 27.7-27.71v-303.05c0-15.274-12.426-27.7-27.7-27.7z"></path><path d="m177.789 179.228c0 43.126 35.085 78.211 78.211 78.211s78.211-35.085 78.211-78.211-35.085-78.212-78.211-78.212-78.211 35.086-78.211 78.212zm141.422 0c0 34.855-28.356 63.211-63.211 63.211s-63.211-28.356-63.211-63.211 28.356-63.211 63.211-63.211 63.211 28.356 63.211 63.211z"></path><path d="m232.319 140.832c-4.014 2.362-6.41 6.552-6.41 11.209v54.7c0 4.657 2.396 8.848 6.411 11.209 2.055 1.209 4.322 1.815 6.592 1.815 2.165 0 4.333-.551 6.32-1.655l49.229-27.35c4.126-2.292 6.69-6.648 6.69-11.369s-2.563-9.077-6.69-11.37l-49.23-27.351c-4.072-2.26-8.898-2.201-12.912.162zm8.59 62.521v-47.923l43.13 23.961z"></path><path d="m173.167 319.211h-32.325c-4.142 0-7.5 3.358-7.5 7.5v16.744h-16.744c-4.142 0-7.5 3.358-7.5 7.5v32.325c0 4.142 3.358 7.5 7.5 7.5h16.744v16.744c0 4.142 3.358 7.5 7.5 7.5h32.325c4.142 0 7.5-3.358 7.5-7.5v-16.744h16.744c4.142 0 7.5-3.358 7.5-7.5v-32.325c0-4.142-3.358-7.5-7.5-7.5h-16.744v-16.744c0-4.142-3.358-7.5-7.5-7.5zm16.744 39.244v17.325h-16.744c-4.142 0-7.5 3.358-7.5 7.5v16.744h-17.325v-16.744c0-4.142-3.358-7.5-7.5-7.5h-16.744v-17.325h16.744c4.142 0 7.5-3.358 7.5-7.5v-16.744h17.325v16.744c0 4.142 3.358 7.5 7.5 7.5z"></path><path d="m307.089 367.118c0 13.047 10.615 23.663 23.663 23.663.2 0 .398-.01.597-.015-.005.199-.015.397-.015.597 0 13.047 10.615 23.663 23.663 23.663s23.663-10.615 23.663-23.663c0-.2-.01-.398-.015-.597.199.005.396.015.596.015 13.047 0 23.663-10.615 23.663-23.663s-10.615-23.663-23.663-23.663c-.2 0-.397.01-.596.015.005-.199.015-.396.015-.596 0-13.047-10.615-23.663-23.663-23.663s-23.663 10.615-23.663 23.663c0 .2.01.397.015.596-.199-.005-.397-.015-.597-.015-13.047 0-23.663 10.615-23.663 23.663zm15 0c0-4.776 3.886-8.663 8.663-8.663s8.663 3.886 8.663 8.663-3.886 8.663-8.663 8.663-8.663-3.887-8.663-8.663zm32.907 32.906c-4.776 0-8.663-3.886-8.663-8.663s3.886-8.663 8.663-8.663 8.663 3.886 8.663 8.663-3.887 8.663-8.663 8.663zm32.906-32.906c0 4.776-3.886 8.663-8.663 8.663s-8.663-3.886-8.663-8.663 3.886-8.663 8.663-8.663 8.663 3.886 8.663 8.663zm-32.906-32.907c4.776 0 8.663 3.886 8.663 8.663s-3.886 8.663-8.663 8.663-8.663-3.886-8.663-8.663 3.887-8.663 8.663-8.663z"></path><path d="m264.663 409.545c0 4.142 3.358 7.5 7.5 7.5h20.203c4.142 0 7.5-3.358 7.5-7.5s-3.358-7.5-7.5-7.5h-20.203c-4.142 0-7.5 3.358-7.5 7.5z"></path><path d="m266.102 368.709h-20.203c-4.142 0-7.5 3.358-7.5 7.5s3.358 7.5 7.5 7.5h20.203c4.142 0 7.5-3.358 7.5-7.5s-3.358-7.5-7.5-7.5z"></path><path d="m212.134 409.545c0 4.142 3.358 7.5 7.5 7.5h20.203c4.142 0 7.5-3.358 7.5-7.5s-3.358-7.5-7.5-7.5h-20.203c-4.142 0-7.5 3.358-7.5 7.5z"></path></g></g></svg>