<!-- icon666.com - MILLIONS vector ICONS FREE --><svg id="_x33_0" enable-background="new 0 0 64 64" viewBox="0 0 64 64" xmlns="http://www.w3.org/2000/svg"><g><g><g><path d="m28 8v7.08 7.92h-3c-1.38 0-2.63-.56-3.54-1.46-.04-.04-.08-.08-.12-.13-1.8 1.04-3.85 1.59-5.95 1.59h-.39c-1.07 0-2.06-.34-2.88-.91l1.14 10.25c.46 4.18 2.92 7.87 6.59 9.91.33.18.67.35 1.02.51l-.87 5.24-4.11.69v-.01l-.29-.89c-.37-1.09-1.33-1.88-2.48-2.02l-.64-.08c-1.56-.2-2.94-.97-3.91-2.07-.98-1.11-1.57-2.56-1.57-4.14 0-.97.23-1.93.66-2.8l1.34-2.68-.63-.54c-2.02-1.74-3.61-3.86-4.7-6.23-1.09-2.36-1.67-4.95-1.67-7.61 0-2.39.48-4.75 1.42-6.94 2.78-6.48 9.15-10.68 16.19-10.68h8.39z" fill="#656d78" style="fill: rgb(66, 20, 20);"></path></g><g><path d="m28 56v6c-6.4 0-26 0-26 0v-.35c0-1.5.27-2.97.78-4.36s1.27-2.68 2.25-3.82c1.92-2.24 4.57-3.74 7.48-4.22l3.38-.56 4.11-.69v9l8-5z" fill="#4fc1e9"></path></g><g><path d="m28 52-8 5v-9z" fill="#3bafda"></path></g><g><path d="m28 48v4l-8-4 .87-5.24c1.8.82 3.75 1.24 5.73 1.24h1.4z" fill="#f0d0b4"></path></g><g><path d="m28 38v6h-1.4c-1.98 0-3.93-.42-5.73-1.24-.35-.16-.69-.33-1.02-.51-3.67-2.04-6.13-5.73-6.59-9.91l-1.14-10.25c.82.57 1.81.91 2.88.91h.39c2.1 0 4.15-.55 5.95-1.59.04.05.08.09.12.13.91.9 2.16 1.46 3.54 1.46h3v3.92 7.08z" fill="#f0d0b4"></path></g><g><path d="m28 56h9c-.57 3.44-3.53 5.96-7 6-.01 0-.75 0-2 0z" fill="#aab2bd"></path></g><g><path d="m39 52v3c0 .55-.45 1-1 1h-1-9v-4z" fill="#ccd1d9"></path></g><g><path d="m39 49v3h-11v-4h4 5 1c.55 0 1 .45 1 1z" fill="#ccd1d9"></path></g><g><path d="m28.54 2c-.18 0-.36 0-.54 0v46h4 5c0-2.2.53-4.16 1.36-6 2.37-5.27 7.19-9.61 8.96-16 .43-1.52.68-3.17.68-4.97.02-10.47-8.99-19.03-19.46-19.03z" fill="#ffeaa7" style="fill: rgb(255, 210, 61);"></path></g><g><path d="m31 32.95v1.05h-3v-7.08c.33.05.66.08 1 .08 3.31 0 6-2.69 6-6s-2.69-6-6-6c-.34 0-.67.03-1 .08v-7.08h3v1.05c0 1.19.71 2.25 1.8 2.7.01 0 .03.01.04.01 1.09.46 2.35.22 3.19-.62l.75-.75 2.83 2.83-.75.75c-.84.84-1.08 2.1-.62 3.19 0 .01.01.03.01.04.45 1.09 1.51 1.8 2.7 1.8h1.05v4h-1.05c-1.19 0-2.25.71-2.7 1.8 0 .01-.01.03-.01.04-.46 1.09-.22 2.35.62 3.19l.75.75-2.83 2.83-.75-.75c-.84-.84-2.1-1.08-3.19-.62-.01 0-.03.01-.04.01-1.09.45-1.8 1.51-1.8 2.7z" fill="#fcd770" style="fill: rgb(107, 107, 107);"></path></g></g><g><path d="m15.879 28.293c1.1 1.101 2.564 1.707 4.121 1.707s3.021-.606 4.121-1.707l.586-.586-1.414-1.414-.586.586c-1.446 1.445-3.968 1.445-5.414 0l-.586-.586-1.414 1.414z" fill="#000000" style="fill: rgb(0, 0, 0);"></path><path d="m51 17h2v2h-2z" fill="#000000" style="fill: rgb(0, 0, 0);"></path><path d="m55 17h2v2h-2z" fill="#000000" style="fill: rgb(0, 0, 0);"></path><path d="m59 17h2v2h-2z" fill="#000000" style="fill: rgb(0, 0, 0);"></path><path d="m58.707 21.293-1.414 1.414 2.293 2.293h-10.995c.255-1.239.406-2.552.409-3.968.005-3.56-.994-6.995-2.833-10.032h13.418l-2.293 2.293 1.414 1.414 4.708-4.707-4.707-4.707-1.414 1.414 2.293 2.293h-14.794c-.512-.654-1.052-1.291-1.65-1.891-3.877-3.882-9.198-6.109-14.598-6.109h-8.932c-7.455 0-14.17 4.429-17.107 11.283-.999 2.329-1.505 4.797-1.505 7.333 0 5.62 2.448 10.941 6.715 14.599l.042.036-.99 1.98c-.502 1.003-.767 2.125-.767 3.246 0 3.652 2.733 6.748 6.355 7.2l.645.081c.679.085 1.251.528 1.542 1.138l-2.2.367c-3.137.523-6.005 2.141-8.074 4.556-2.107 2.457-3.268 5.594-3.268 8.832v1.349h1 28.012c3.68-.043 6.827-2.519 7.786-6h.202c1.103 0 2-.897 2-2v-6c0-1.08-.862-1.958-1.934-1.993.116-1.415.458-2.74.972-4.007h20.548l-2.293 2.293 1.414 1.414 4.707-4.707-4.707-4.707-1.414 1.414 2.293 2.293h-19.592c.852-1.567 1.884-3.085 2.954-4.637 1.973-2.863 3.986-5.794 5.122-9.363h11.516l-2.293 2.293 1.414 1.414 4.707-4.707zm-26.256-8.607c1.478.618 3.161.288 4.287-.84l.042-.042 1.416 1.416-.042.042c-1.126 1.127-1.456 2.81-.827 4.318.607 1.47 2.027 2.42 3.618 2.42h.055v2h-.055c-1.591 0-3.011.95-3.631 2.452-.616 1.477-.286 3.159.84 4.286l.042.042-1.416 1.416-.042-.042c-1.128-1.127-2.812-1.457-4.319-.827-1.469.608-2.419 2.027-2.419 3.618v.055h-1v-5c3.86 0 7-3.141 7-7s-3.14-7-7-7v-5h1v.055c0 1.591.95 3.011 2.451 3.631zm5.549 36.314v2h-9v-2zm-16.837-26.392c1.041.868 2.379 1.392 3.837 1.392h2v13h-.171c-1.557 0-3.021-.606-4.122-1.707l-1.414 1.414c1.479 1.479 3.445 2.293 5.536 2.293h.171v4h-.401c-2.185 0-4.35-.561-6.259-1.622-3.383-1.879-5.658-5.298-6.085-9.144l-.942-8.48c.535.158 1.101.246 1.687.246h.395c2.007 0 3.979-.496 5.768-1.392zm7.837-6.608c2.757 0 5 2.243 5 5s-2.243 5-5 5zm-2.401 29h.401v5.382l-5.892-2.946.548-3.289c1.584.557 3.257.853 4.943.853zm-5.599 4.618 4.958 2.479-4.958 3.098zm-4.453-2.14c-.484-1.452-1.779-2.514-3.298-2.704l-.645-.081c-2.625-.328-4.604-2.571-4.604-5.216 0-.812.192-1.624.555-2.351l1.688-3.377-1.227-1.053c-3.823-3.276-6.016-8.044-6.016-13.08 0-2.264.452-4.466 1.343-6.546 2.622-6.117 8.615-10.07 15.269-10.07h7.388v19h-2c-2.206 0-4-1.794-4-4s1.794-4 4-4v-2c-3.309 0-6 2.691-6 6 0 1.109.308 2.146.835 3.038-1.395.622-2.906.962-4.44.962h-.395c-2.206 0-4-1.794-4-4s1.794-4 4-4v-2c-3.309 0-6 2.691-6 6 0 1.856.847 3.516 2.174 4.618l1.093 9.837c.499 4.488 3.153 8.478 7.101 10.671.13.072.264.136.396.204l-.634 3.801-2.557.426zm-10.761 6.641c1.765-2.059 4.209-3.438 6.885-3.884l6.329-1.054v9.624l8-5.001v7.196h-23.981c.142-2.528 1.112-4.95 2.767-6.881zm24.214 6.881h-1v-4h6.693c-.882 2.345-3.115 3.971-5.693 4zm-1-6v-2h9v2zm12.301-19.772c-2.433 3.528-4.941 7.17-5.264 11.772h-3.037v-4.838c0-1.46.931-2.751 2.316-3.214l-.633-1.896c-2.203.734-3.683 2.788-3.683 5.11v4.838h-2v-12h3v-2.055c0-.778.465-1.473 1.222-1.786.726-.303 1.551-.142 2.103.409l1.456 1.456 4.244-4.244-1.455-1.456c-.551-.552-.712-1.377-.393-2.141.296-.718.99-1.183 1.768-1.183h2.055v-6h-2.055c-.778 0-1.473-.465-1.786-1.222-.303-.726-.142-1.551.409-2.103l1.455-1.456-4.243-4.243-1.457 1.456c-.551.551-1.376.712-2.141.392-.718-.297-1.182-.991-1.182-1.769v-2.055h-3v-3.977c4.715.122 9.331 2.099 12.726 5.499 3.408 3.413 5.281 7.854 5.274 12.506-.009 5.948-2.902 10.143-5.699 14.2z" fill="#000000" style="fill: rgb(0, 0, 0);"></path><path d="m51 33h2v2h-2z" fill="#000000" style="fill: rgb(0, 0, 0);"></path><path d="m55 33h2v2h-2z" fill="#000000" style="fill: rgb(0, 0, 0);"></path><path d="m59 33h2v2h-2z" fill="#000000" style="fill: rgb(0, 0, 0);"></path></g></g></svg>