<!-- icon666.com - MILLIONS vector ICONS FREE --><svg id="svg8" viewBox="0 0 16.933333 16.933334" xmlns="http://www.w3.org/2000/svg" xmlns:svg="http://www.w3.org/2000/svg"><g id="layer1"><path id="path12640" d="m14.553217 2.912307 2.00498-.780828-.246-.913831.35771-.951207-1.62829.800366.33.768995z" fill="#ffca28"></path><path id="path12644" d="m2.382388 2.912307-2.00498-.780828.246-.913831-.35771-.951207 1.62829.800366-.33.768995z" fill="#ffca28"></path><path id="rect12630" d="m8.2020826 14.022917h.5291676c.2931581 0 .5291662.236008.5291662.529166v.529168c0 .293158-.2360081.529166-.5291662.529166h-.5291676c-.2931581 0-.5291662-.236008-.5291662-.529166v-.529168c0-.293158.2360081-.529166.5291662-.529166z" fill="#c4dcf0"></path><g fill="#e4eff8"><path id="rect12613" d="m7.1448892 11.378987h2.645834c.2931578 0 .5291668.236009.5291668.529167s-.236009.529166-.5291668.529166h-2.645834c-.2931582 0-.5291665-.236008-.5291665-.529166s.2360083-.529167.5291665-.529167z"></path><path id="rect12615" d="m7.1448888 12.437322h2.6458346c.2931576 0 .5291666.236008.5291666.529166v.000001c0 .293158-.236009.529166-.5291666.529166h-2.6458346c-.293158 0-.5291661-.236008-.5291661-.529166v-.000001c0-.293158.2360081-.529166.5291661-.529166z"></path><path id="rect12617" d="m7.4094767 13.495656h2.1166669c.2931583 0 .5291664.232321.5291664.520898v.01654c0 .288577-.2360081.520898-.5291664.520898h-2.1166669c-.2931583 0-.5291666-.232321-.5291666-.520898v-.01654c0-.288577.2360083-.520898.5291666-.520898z"></path></g><path id="path12620" d="m9.9291096 11.399821c-.3142501 1.960291-1.8604158 2.641212-2.9848306 2.877344.088853.164186.2622004.276985.4650877.276985h2.1166666c.2931584 0 .5291667-.23232.5291667-.520898v-.01654c0-.288577-.2360083-.520898-.5291667-.520898h.2645834c.2931583 0 .5291663-.236009.5291663-.529167s-.236008-.529166-.5291663-.529167c.2931583 0 .5291663-.236008.5291663-.529166 0-.244857-.165601-.447595-.3906734-.508496z" fill="#c4dcf0"></path><path id="path12592" d="m10.168731 11.476266c0-1.195708 2.26789-2.120466 2.26789-4.626261 0-2.174722-1.587568-3.937681-3.968818-3.937681-2.381252 0-3.968819 1.762959-3.968819 3.937681 0 2.505795 2.267889 3.430553 2.267889 4.626261z" fill="#ffca28" paint-order="stroke fill markers"></path><path id="path12608" d="m4.5154865 7.1458168c.1657631 2.2167014 2.1270338 3.1315322 2.2401734 4.2328162l1.7120401.00053v-1.5265222c-.1453078.1307042-.3337255.2032082-.5291666.2036052-.438371 0-.79375-.3553731-.79375-.7937501 0-.4383759.355379-.79375.79375-.79375.1953799.0002646.3837876.0725744.5291666.2030886v-1.5260052z" fill="#ecb200"></path><path id="path12596" d="m8.4677 2.9124836v1.5265219c-.145311-.1307041-.3337266-.2032082-.5291666-.2036053-.438371.0000003-.79375.3553733-.79375.79375 0 .4383762.355379.79375.79375.79375.1953799-.0002646.3837868-.0725742.5291666-.2030884v1.526005h1.2614217c-.1305139.1453801-.2028214.3337867-.2030884.5291667 0 .4383701.3553741.79375.7937497.79375.438377.0000002.79375-.3553799.79375-.79375-.000397-.1954398-.0729-.3838564-.203605-.5291667h1.509986c.0073-.097332.01654-.1930929.01654-.295589 0-2.1747221-1.5875-3.937744-3.96875-3.9377442z" fill="#ecb200"></path><path id="path11359" d="m.01733756.35824618.328134.87126002-.224784.83199c-.03555.13089.03363.26748.160191.31626l2.00601204.7792801c.248242.0956.466536-.1937202.30643-.4061801l-.726545-.95343.269741-.62683c.05529-.12955-.00059-.2797-.127119-.34158001l-1.62672004-.80098002c-.03112-.0156-.06501-.02489999-.09973-.0274-.0088-.00061-.01757-.00079-.02635-.000515-.18151.006005-.303518.18827501-.23926.35812501zm8.44932604-.35812001c-.132287 0-.264574.08820001-.264574.26458002v.26459c0 .35284.529148.35284.529148 0v-.26459c0-.17642001-.132287-.26458002-.264574-.26458002zm8.1837214.00052c-.03472.002-.06861.01180001-.09973.02740001l-1.626718.80098001c-.12653.0619-.182411.21203001-.12712.34158001l.269742.62683-.726546.95343c-.160106.2124599.05819.5018101.306431.4061799l2.006011-.7792799c.126559-.0488.19574-.18537.160191-.31626l-.224785-.83199.328134-.87126001c.06426-.16985001-.05775-.35247001-.239257-.35812502-.0088-.000275-.01758-.000095-.02635.000515zm-9.7835694.51624003c.000688.0716.03032.13979999.08216.18913999l.263541.26561c.249693.26108001.635894-.12459999.375158-.37465001l-.265608-.26405999c-.062-.0644-.141799-.0881-.217032-.0801-.12539.0134-.23849.11504998-.238219.26406001zm2.738758-.17675-.263541.26406999c-.0492.0478-.07792.11283-.0801.18138-.0071.24050001.284517.36485001.453187.19327l.265608-.26562c.1942064-.18755.02599-.45020001-.175175-.45990995-.06706-.00299-.137817.02171-.199979.08681zm-8.85755604.45735999.80250904.39480001-.230469.53899c-.03706.0874-.02444.18799.03307.26355l.250106.32814-.90844204-.35347.183962-.68367c.01449-.0536.01178-.11033-.0078-.16227zm15.43729244 0-.122986.32607001c-.01953.0519-.02224.1087-.0078.16227l.183963.68367-.908442.35347.250106-.32814c.05751-.0756.07013-.17613.03307-.26355l-.23042-.53899zm-7.7439674.79064001c-.342517.043-.298593.53086.02739.52917 2.8776364 0 5.4934024 1.73992 6.5993724 4.4100501 1.105025 2.6678602.490491 5.7428687-1.54869 7.7850387-2.042102 2.04509-5.1147414 2.65319-7.7847884 1.54719-2.669407-1.10574-4.409081-3.70822-4.409916-6.5985487v-1.05523l.312632.41651c.224333.28009.628375-.0408.423732-.31832l-.791139-1.0547199c-.04605-.0615-.116435-.10542-.211349-.10542-.09492 0-.16529904.0439-.21135104.10542l-.791139 1.0547199c-.204642.2888901.205601.5973699.423733.31832l.315215-.42013v1.05885c.000833 3.1028387 1.87076804 5.9013787 4.73650104 7.0884387 2.866372 1.18733 6.1671354.52992 8.3609614-1.66398 2.193827-2.19389 2.851214-5.4947587 1.663924-8.3612186-1.187289-2.8664702-3.985157-4.7361402-7.0876974-4.7361402-.0091-.000471-.01828-.000471-.027391 0zm-1.14253.0898c-.126995.0194-.251815.0427-.376708.0682-.359203.0728-.22492.59611.105417.51728.116231-.0238.233148-.0439.351387-.062.326502-.056.283329-.52125-.03514-.52755-.01506.0001-.03012.00207-.04496.00407zm-1.468593.37689c-.11754.043-.235068.0899-.349837.13849-.327371.13944-.11187.6261499.207215.4867899.106804-.0452.214615-.0871.324001-.1271199.281833-.10672.203251-.51105-.08578-.515745-.03271-.000125-.06506.00598-.0956.017585zm-1.597778 4.7950101c0 1.3378899.616409 2.2637901 1.196268 2.97346.28993.3548387.563984.6503487.762202.9244887.190022.26276.301588.48478.310048.69246-.09139.12877-.15089.29427-.15089.46509 0 .20487.08171.39557.202564.52968-.122446.1352-.202564.32368-.202564.52865 0 .28328.152779.53406.36534.66921-.0653.11487-.100766.24685-.100766.38912 0 .45272.359588.7953.794756.7953h.263024v.26303c0 .43518.35426.79478.795273.79478.441015 0 .793207-.3596.793207-.79478v-.26303h.263024c.435167 0 .7947574-.33527.7947574-.7953 0-.14744-.03339-.27529-.0987-.39016.221453-.1408.363272-.38489.363272-.66817 0-.20497-.0747-.38861-.20153-.52865.126718-.14061.20153-.32481.20153-.52968 0-.17082-.05148-.32848-.149073-.46242.0085-.20768.114075-.4241.304098-.68686.19825-.27415.479507-.57896.769436-.9337887.579858-.70968 1.193167-1.6231701 1.193167-2.97243 0-2.30865-1.700691-4.2038601-4.2342224-4.2038601-2.526223 0-4.234221 1.88488-4.234221 4.2038601zm.25579-4.1485611c-.105458.0641-.208518.13052-.310565.1994699-.289913.2017202.000449.6334501.297129.43718.09501-.0642.190668-.1258498.288861-.1855099.240342-.1447401.117297-.50873-.158124-.49195-.04176.00401-.08205.01801-.117301.04081zm3.714891 1.3038102c-.08716-.022-.166111-.0339-.263541-.0341-.581344 0-1.060364.46965-1.060364 1.0583299 0 .5886802.47902 1.0588501 1.060364 1.0588501.09739-.00014.192287-.0156.263541-.0357v.8268201h-3.439982c-.00008-.0102-.0016-.019201-.0016-.0295 0-1.9594301 1.367787-3.54113 3.441538-3.6654zm.529149-.8206193c2.0739644.1252699 3.4394664 1.7066102 3.4394664 3.6654 0 .0102-.0015.019301-.0016.0295h-1.260862c-.229128-.0003439-.349971.2708299-.196881.44132.08663.0965.135786.2217399.136422.3513899 0 .2953801-.239894.53124-.529149.53124-.289254 0-.5282884-.23456-.5291494-.5291701.000291-.1303499.04772-.25653.13491-.3534598.1524924-.1698001.03289-.4399701-.195319-.44132h-.997826v-1.2598699c.000344-.2291299-.270823-.3504999-.441302-.1974-.0965.0866-.221733.1363001-.351388.1369401-.295367 0-.531215-.24042-.531215-.52968 0-.28927.234553-.5283102.529148-.5291701.130346.0002646.256526.0477.353455.1348801.169792.1524799.439955.0329.441302-.19534zm-5.423257.3979301c-.09082.0825-.178847.1669701-.265607.2537301-.246639.24956.121637.6267198.372574.3751698.08081-.0808.163447-.1597898.248038-.2366697.192879-.1684603.05305-.4808303-.19688-.4625202-.05912.00499-.114767.02979-.158125.07029zm-.795273.98028c-.07737.006-.147977.0465-.193263.10955-.07364.0985-.146033.1987298-.214966.30076-.202958.28941.250754.5932901.437684.2945599.0642-.095.130378-.18736.198947-.27906.139984-.1810301.0019-.4392999-.228402-.4258099zm-.739981 1.2205999c-.09647.006-.181905.0648-.222718.15244-.05388.1118301-.103897.2252602-.15244.3400301-.137289.3273599.351994.5299501.486259.2067099.04517-.1068099.09454-.2121699.144689-.3162599.0924-.18367-.05075-.3980601-.25579-.3829201zm6.429362 1.6252201v.8294c-.08716-.022-.166111-.0344-.263541-.0346-.581344 0-1.060364.4701701-1.060364 1.05884 0 .5886802.47902 1.0583388 1.060364 1.0583388.09739-.00014.192287-.0156.263541-.0357v.82785h-1.058297c-.05799 0-.10814.005-.162775.0171-.0677-.24311-.197252-.465809-.352938-.681089-.226963-.31384-.513082-.6221393-.790106-.9611793-.460078-.5630701-.898565-1.2098102-1.033493-2.0789453zm.529149 0h.563254c-.02199.0872-.03442.1661099-.03462.2635401 0 .58137.470154 1.0604 1.0588144 1.0604.588658 0 1.058814-.47903 1.058814-1.0604-.000133-.0974-.01555-.1922902-.03566-.2635401h.785972c-.134928.86912-.571348 1.5148301-1.031426 2.0778999-.277024.33904-.562109.6473289-.789072.9611789-.155687.21528-.287552.43961-.3552574.68273-.05464-.0119-.1066-.0177-.164591-.0177h-1.056226v-1.2608991c.000344-.2291302-.270823-.3505001-.441302-.1974-.0965.0866-.221733.1362998-.351388.1369398-.295367 0-.531215-.2398998-.531215-.5291698 0-.28926.234553-.5288201.529148-.52968.130346.0002646.256526.0477.353455.1348798.169792.1524802.439955.0329.441302-.19534zm-1.587446 4.2333188h2.643676c.151172 0 .2656084.11658.2656084.26355 0 .15007-.1144364.26561-.2656084.26561h-2.643676c-.151172 0-.265608-.12174-.265608-.26561 0-.13949.114436-.26355.265608-.26355zm2.644451 1.05833c.1511.0009.2648334.1166.2648334.26303 0 .15007-.1144364.26562-.2656084.26562h-2.643676c-.151172 0-.265608-.12175-.265608-.26562 0-.13506.113733-.26213.264833-.26303zm-2.38246 1.05885h2.119694c.149796.001.263024.10981.263024.26303 0 .15118-.114435.26562-.265607.26562h-2.114528c-.151172 0-.265607-.12175-.265607-.26562 0-.14299.113228-.26158.263024-.26303zm.795273 1.05833h.529148v.26303c.000001.15118-.119676.26562-.263541.26562-.143864 0-.265607-.11444-.265607-.26562z" fill="#333" font-variant-ligatures="normal" font-variant-position="normal" font-variant-caps="normal" font-variant-numeric="normal" font-variant-alternates="normal" font-feature-settings="normal" text-indent="0" text-align="start" text-decoration-line="none" text-decoration-style="solid" text-decoration-color="#000000" text-transform="none" text-orientation="mixed" white-space="normal" shape-padding="0" isolation="auto" mix-blend-mode="normal" solid-color="#000000" solid-opacity="1" vector-effect="none"></path></g></svg>