<!-- icon666.com - MILLIONS vector ICONS FREE --><svg id="_x33_0" enable-background="new 0 0 62 62.744" viewBox="0 0 62 62.744" xmlns="http://www.w3.org/2000/svg"><g><g><g><path d="m7 47.744h-4-2v-.82c0-5.85 3.78-10.95 9.22-12.73l1.78 3.55 3-3 3 3 1.78-3.55c5.44 1.78 9.22 6.88 9.22 12.73v.82h-2-4v6h-16z" fill="#4fc1e9"></path></g><g><path d="m12 33.744h6c.61.11 1.21.26 1.78.45l-1.78 3.55-3-3-3 3-1.78-3.55c.57-.19 1.17-.34 1.78-.45z" fill="#3bafda"></path></g><g><path d="m15 61.744h-8v-3-5h16v5 3z" fill="#d3a06c"></path></g><g><path d="m27 47.744v5.88c0 2.42-1.65 4.53-4 5.12v-5-6z" fill="#f0d0b4"></path></g><g><path d="m7 53.744v5c-2.35-.59-4-2.7-4-5.12v-5.88h4z" fill="#f0d0b4"></path></g><g><path d="m18 31.814v1.93h-6v-1.93c0-1.78-2.15-2.67-3.41-1.41l-1.37 1.36-4.24-4.24 1.36-1.37c1.26-1.26.37-3.41-1.41-3.41h-1.93v-6h1.93c1.78 0 2.67-2.15 1.41-3.41l-1.36-1.37 4.24-4.24 1.37 1.36c1.26 1.26 3.41.37 3.41-1.41v-1.93h6v1.93c0 1.78 2.15 2.67 3.41 1.41l1.37-1.36 4.24 4.24-1.36 1.37c-1.26 1.26-.37 3.41 1.41 3.41h1.93v6h-1.93c-1.78 0-2.67 2.15-1.41 3.41l1.36 1.37-4.24 4.24-1.37-1.36c-1.26-1.26-3.41-.37-3.41 1.41zm5-12.07c0-4.42-3.58-8-8-8s-8 3.58-8 8 3.58 8 8 8 8-3.58 8-8z" fill="#ffc729"></path></g><g><path d="m15 11.744c4.42 0 8 3.58 8 8s-3.58 8-8 8-8-3.58-8-8 3.58-8 8-8zm4 8c0-2.21-1.79-4-4-4s-4 1.79-4 4 1.79 4 4 4 4-1.79 4-4z" fill="#fcd770"></path></g><g><path d="m53 1.744 7 10h-3v28h-8v-28h-3z" fill="#ff826e"></path></g><g><path d="m40 20.744 5 7h-2v12h-6v-12h-2z" fill="#ff826e"></path></g><g><path d="m45 57.744h-10c-1.1 0-2-.9-2-2v-14c0-1.1.9-2 2-2h2 6 6 8 2c1.1 0 2 .9 2 2v14c0 1.1-.9 2-2 2h-10l-.76 3.03c-.14.57-.65.97-1.24.97s-1.1-.4-1.24-.97z" fill="#e6e9ed"></path></g></g><g><path d="m15 10.744c-4.962 0-9 4.038-9 9s4.038 9 9 9 9-4.038 9-9-4.038-9-9-9zm0 16c-3.86 0-7-3.14-7-7s3.14-7 7-7 7 3.14 7 7-3.14 7-7 7z"></path><path d="m15 14.744c-2.757 0-5 2.243-5 5s2.243 5 5 5 5-2.243 5-5-2.243-5-5-5zm0 8c-1.654 0-3-1.346-3-3s1.346-3 3-3 3 1.346 3 3-1.346 3-3 3z"></path><path d="m26.147 15.126c-.06-.145-.222-.651.217-1.09l2.071-2.071-5.657-5.657-2.071 2.072c-.438.439-.945.277-1.09.217s-.617-.305-.617-.924v-2.929h-8v2.929c0 .62-.472.864-.617.924-.146.06-.652.222-1.09-.217l-2.071-2.071-5.657 5.657 2.071 2.071c.438.438.277.945.217 1.09s-.304.617-.924.617h-2.929v8h2.929c.62 0 .864.473.924.617.06.145.222.651-.217 1.09l-2.071 2.071 5.657 5.657 2.071-2.071c.439-.439.945-.277 1.09-.217s.617.304.617.923v1.133c-6.419 1.557-11 7.298-11 13.977v1.82h2v4.877c0 2.616 1.615 4.904 4 5.835v3.289h18v-3.289c2.385-.931 4-3.218 4-5.835v-4.877h2v-1.82c0-6.679-4.581-12.42-11-13.977v-1.133c0-.62.472-.864.617-.924.144-.061.65-.223 1.09.217l2.071 2.071 5.657-5.657-2.071-2.071c-.438-.438-.277-.945-.217-1.09s.304-.617.924-.617h2.929v-8h-2.929c-.62.001-.864-.472-.924-.617zm-8.255 19.618c.149.028.293.067.44.1l-.606 1.212-1.312-1.312zm-5.784 0h1.478l-1.312 1.312-.606-1.212c.147-.033.291-.072.44-.1zm-8.108 18.877v-4.877h2v8.494c-1.218-.768-2-2.114-2-3.617zm12 7.123v-2.586c0-.635.258-1.258.707-1.707l-1.414-1.414c-.834.833-1.293 1.942-1.293 3.121v2.586h-6v-6h14v6zm10-7.123c0 1.503-.781 2.85-2 3.617v-8.494h2zm1.999-6.877h-3.999v-3.586c0-.635.258-1.258.707-1.707l-1.414-1.414c-.834.833-1.293 1.942-1.293 3.121v9.586h-14v-9.586c0-1.179-.459-2.288-1.293-3.121l-1.414 1.414c.449.449.707 1.071.707 1.707v3.586h-3.999c.072-5.052 3.189-9.454 7.732-11.296l1.992 3.984 3.275-3.274 3.274 3.274 1.992-3.984c4.543 1.841 7.66 6.243 7.733 11.296zm.001-25h-.929c-1.237 0-2.299.709-2.772 1.852-.473 1.142-.224 2.395.65 3.269l.657.657-2.829 2.829-.657-.657c-.874-.875-2.128-1.125-3.269-.65-1.142.472-1.851 1.534-1.851 2.77v.929h-4v-.929c0-1.236-.709-2.298-1.852-2.771-1.142-.473-2.395-.224-3.269.65l-.657.657-2.829-2.829.657-.657c.875-.874 1.124-2.127.65-3.269-.473-1.143-1.535-1.852-2.772-1.852h-.928v-4h.929c1.236 0 2.298-.709 2.771-1.852.473-1.142.224-2.395-.65-3.269l-.657-.657 2.829-2.829.657.657c.874.875 2.128 1.124 3.269.65 1.143-.472 1.852-1.534 1.852-2.77v-.929h4v.929c0 1.236.709 2.298 1.852 2.771 1.143.474 2.395.225 3.269-.65l.657-.657 2.829 2.829-.657.657c-.875.874-1.124 2.127-.65 3.269.473 1.143 1.535 1.852 2.771 1.852h.929z"></path><path d="m28 3.744h2v2h-2z"></path><path d="m34 3.744h2v2h-2z"></path><path d="m40 3.744h2v2h-2z"></path><path d="m59 38.744h-1v-26h3.921l-8.921-12.744-8.921 12.744h3.921v26h-4v-10h2.943l-6.943-9.721-6.943 9.721h2.943v10h-1c-1.654 0-3 1.346-3 3v14c0 1.654 1.346 3 3 3h9.219l.568 2.272c.254 1.017 1.165 1.728 2.213 1.728s1.958-.71 2.213-1.728l.568-2.272h9.219c1.654 0 3-1.346 3-3v-14c0-1.655-1.346-3-3-3zm-11.08-28 5.08-7.257 5.08 7.256h-2.08v28h-6v-28h-2.08zm-10.977 16 3.057-4.28 3.057 4.279h-1.057v12h-4v-12h-1.057zm23.057 29c0 .551-.449 1-1 1h-10.781l-.947 3.787c-.063.251-.482.251-.545 0l-.947-3.787h-10.78c-.551 0-1-.449-1-1v-14c0-.551.449-1 1-1h24c.551 0 1 .449 1 1z"></path><path d="m38.917 46.247-1.21-1.21-1.414 1.414 2.79 2.79 4.698-5.873-1.562-1.249z"></path><path d="m38.917 53.247-1.21-1.21-1.414 1.414 2.79 2.79 4.698-5.873-1.562-1.249z"></path><path d="m44 50.744h14v2h-14z"></path><path d="m44 44.744h14v2h-14z"></path></g></g></svg>