<!-- icon666.com - MILLIONS vector ICONS FREE --><svg version="1.1" id="Capa_1" xmlns="http://www.w3.org/2000/svg" xmlns:xlink="http://www.w3.org/1999/xlink" x="0px" y="0px" viewBox="0 0 512 512" style="enable-background:new 0 0 512 512;" xml:space="preserve"><polygon style="fill:#1986E0;" points="9.048,315.733 9.048,503.467 111.448,503.467 111.448,477.867 111.448,384 111.448,315.733 "></polygon><path style="fill:#FFF7D2;" d="M490.925,315.648c-13.346-13.312-34.953-13.312-48.299,0L350.381,409.6v-8.533 c0-18.85-15.283-34.133-34.133-34.133h-62.72c-7.185-20.471-26.522-34.159-48.213-34.133h-42.667c-28.279,0-51.2,22.921-51.2,51.2 v93.867l241.237,0.171l150.272-150.272L490.925,315.648z"></path><path style="fill:#DF7059;" d="M406.582,143.633L406.582,143.633c-21.692-20.83-55.962-20.83-77.653,0l-12.945,12.587 l-12.945-12.587c-21.751-20.693-55.902-20.693-77.653,0C148.884,215.962,315.958,307.2,315.958,307.2 S484.585,217.421,406.582,143.633z"></path><path d="M509.007,321.749l-12.032-12.117l0,0c-16.717-16.623-43.733-16.597-60.416,0.06l-79.044,80.495 c-4.958-18.722-21.896-31.77-41.267-31.787h-56.994c-9.865-20.855-30.874-34.15-53.939-34.133h-42.667 c-16.068,0-31.462,6.494-42.667,18.014v-26.547c0-4.71-3.823-8.533-8.533-8.533H9.048c-4.71,0-8.533,3.823-8.533,8.533v187.733 c0,4.71,3.823,8.533,8.533,8.533h102.4c4.71,0,8.533-3.823,8.533-8.533V486.4l232.704,0.162l0,0c2.261,0,4.437-0.896,6.033-2.5 L508.99,333.79C512.31,330.462,512.318,325.086,509.007,321.749z M102.915,494.933H17.581V324.267h85.333V494.933z M349.153,469.504 l-229.171-0.171V384c0.026-23.552,19.115-42.641,42.667-42.667h42.667c18.057-0.026,34.167,11.358,40.158,28.399 c1.195,3.43,4.429,5.734,8.055,5.734h62.72c14.14,0,25.6,11.46,25.6,25.6h-128v17.067h136.533v-0.085 c2.278,0.034,4.48-0.862,6.084-2.475l92.16-93.867c10.018-9.958,26.206-9.958,36.224,0l6.042,6.076L349.153,469.504z"></path><path d="M197.302,193.254c8.115,62.626,110.225,119.066,114.569,121.438c2.517,1.374,5.564,1.391,8.098,0.043 c4.352-2.321,106.709-57.489,115.2-120.201c2.577-21.632-5.956-43.102-22.673-57.062c-25.02-23.97-64.495-23.97-89.515,0 l-7.006,6.827l-6.997-6.827c-21.035-20.292-53.111-23.834-78.063-8.619v-17.92h-17.067v32.341 C201.074,156.578,194.989,174.95,197.302,193.254z M231.205,149.837c8.986-8.448,20.864-13.141,33.195-13.099 c12.169-0.085,23.893,4.582,32.666,13.013l12.954,12.578c3.311,3.217,8.576,3.217,11.887,0l12.945-12.578 c18.389-17.621,47.394-17.621,65.783,0l0.077,0.085c12.698,10.214,19.311,26.197,17.527,42.394 c-6.417,47.727-83.524,94.49-102.229,105.173c-18.645-10.906-95.573-58.59-101.786-106.334 C212.508,175.334,218.908,159.804,231.205,149.837z"></path><path d="M265.048,170.667V153.6c-18.85,0-34.133,15.283-34.133,34.133h17.067C247.981,178.304,255.627,170.667,265.048,170.667z"></path><rect x="68.781" y="341.333" width="17.067" height="17.067"></rect><rect x="307.715" y="59.733" width="17.067" height="51.2"></rect><rect x="307.715" y="25.6" width="17.067" height="17.067"></rect><rect x="358.915" y="34.133" width="17.067" height="51.2"></rect><rect x="358.915" width="17.067" height="17.067"></rect><rect x="256.515" y="51.2" width="17.067" height="51.2"></rect><rect x="256.515" y="17.067" width="17.067" height="17.067"></rect><rect x="213.848" y="76.8" width="17.067" height="17.067"></rect><rect x="213.848" y="42.667" width="17.067" height="17.067"></rect><rect x="137.048" y="145.067" width="17.067" height="17.067"></rect><rect x="154.115" y="162.133" width="17.067" height="17.067"></rect><rect x="137.048" y="179.2" width="17.067" height="17.067"></rect><rect x="119.981" y="162.133" width="17.067" height="17.067"></rect><rect x="154.115" y="25.6" width="17.067" height="17.067"></rect><rect x="171.181" y="42.667" width="17.067" height="17.067"></rect><rect x="154.115" y="59.733" width="17.067" height="17.067"></rect><rect x="137.048" y="42.667" width="17.067" height="17.067"></rect><rect x="435.715" y="68.267" width="17.067" height="17.067"></rect><rect x="452.781" y="85.333" width="17.067" height="17.067"></rect><rect x="435.715" y="102.4" width="17.067" height="17.067"></rect><rect x="418.648" y="85.333" width="17.067" height="17.067"></rect></svg>