<!-- icon666.com - MILLIONS vector ICONS FREE --><svg id="Filled_Expand" viewBox="0 0 64 64" xmlns="http://www.w3.org/2000/svg" data-name="Filled Expand"><path d="m61.5 55-8-6-3-6h-3a7 7 0 0 1 7-7 7 7 0 0 1 7 7z" fill="#cf8e4a"></path><path d="m7.5 48h3l3-5h3a7 7 0 0 0 -7-7 7 7 0 0 0 -7 7 5 5 0 0 0 5 5z" fill="#ffd24a"></path><path d="m51 47h6a6 6 0 0 1 6 6v4l-9 3-9-3v-4a6 6 0 0 1 6-6z" fill="#78d7e6"></path><path d="m55 41a3.6182 3.6182 0 0 1 -3.2361 2h-2.2639v1.5a4.5 4.5 0 0 0 9 0v-1.5h-.2639a3.6182 3.6182 0 0 1 -3.2361-2z" fill="#ffd7aa"></path><path d="m7 47h6a6 6 0 0 1 6 6v4l-9 3-9-3v-4a6 6 0 0 1 6-6z" fill="#50ec72"></path><path d="m8 41 6.5 2v1.5a4.5 4.5 0 0 1 -9 0v-1.5z" fill="#ffd7aa"></path><path d="m29 11h6a6 6 0 0 1 6 6v4l-9 3-9-3v-4a6 6 0 0 1 6-6z" fill="#64a0fa"></path><rect fill="#ffd7aa" height="12" rx="4.5" width="9" x="27.5" y="1"></rect><path d="m32 1h-5l-.3937 1.5747a5.2523 5.2523 0 0 0 .8937 4.4253h2.2639a3.6182 3.6182 0 0 0 3.2361-2 3.6182 3.6182 0 0 0 3.2361 2h.2639v-1.5a4.5 4.5 0 0 0 -4.5-4.5z" fill="#cf8e4a"></path><g fill="#d7dcee"><path d="m26.5 17h11v8h-11z"></path><path d="m48.5 53h11v8h-11z"></path><path d="m4.5 53h11v8h-11z"></path></g><circle cx="10" cy="57" r="1"></circle><circle cx="32" cy="21" r="1"></circle><path d="m16.7776 29.366a1 1 0 1 0 -.366-1.366 1 1 0 0 0 .366 1.366z"></path><path d="m20.6863 25.6863a1 1 0 1 0 -1.4142 0 1 1 0 0 0 1.4142 0z"></path><path d="m40 50.8564a1 1 0 1 0 1.366.366 1 1 0 0 0 -1.366-.366z"></path><path d="m36.1411 52.4548a1 1 0 1 0 1.2247.7071 1 1 0 0 0 -1.2247-.7071z"></path><circle cx="32" cy="54" r="1"></circle><path d="m27.8589 52.4548a1 1 0 1 0 .7071 1.2252 1 1 0 0 0 -.7071-1.2252z"></path><path d="m24 50.8564a1 1 0 1 0 .366 1.366 1 1 0 0 0 -.366-1.366z"></path><path d="m44.7279 25.6863a1 1 0 1 0 -1.4142 0 1 1 0 0 0 1.4142 0z"></path><path d="m47.2224 29.366a1 1 0 1 0 -1.366-.366 1 1 0 0 0 1.366.366z"></path><path d="m47.4548 32.8589a1 1 0 1 0 .7071-1.2247 1 1 0 0 0 -.7071 1.2247z"></path><path d="m15.32 33.566a1 1 0 1 0 -.7071-1.2248 1 1 0 0 0 .7071 1.2248z"></path><circle cx="54" cy="57" r="1"></circle><path d="m62.25 48.7693v-5.7693a7.75 7.75 0 0 0 -15.5 0 .75.75 0 0 0 .75.75h1.25v.75a5.2173 5.2173 0 0 0 .4052 2.0155 6.7071 6.7071 0 0 0 -2.4519 1.2869l-13.9533-11.1624v-10.89h7.25a.75.75 0 0 0 0-1.5h-1.75v-1.543l2.9873-.9956a.75.75 0 0 0 .5127-.7114v-4a6.7434 6.7434 0 0 0 -4.9052-6.4845 5.2173 5.2173 0 0 0 .4052-2.0155v-3a5.2561 5.2561 0 0 0 -5.25-5.25h-5a.75.75 0 0 0 -.7275.5684l-.3936 1.5742a5.9667 5.9667 0 0 0 .8711 4.8321v1.2753a5.2178 5.2178 0 0 0 .4052 2.0156 6.743 6.743 0 0 0 -4.9052 6.4844v4a.75.75 0 0 0 .5127.7114l2.9873.9956v1.543h-1.75a.75.75 0 0 0 0 1.5h7.25v10.89l-13.9534 11.1624a6.707 6.707 0 0 0 -2.4518-1.2867 5.2183 5.2183 0 0 0 .4052-2.0157v-.75h1.25a.75.75 0 0 0 .75-.75 7.75 7.75 0 0 0 -15.5 0 5.687 5.687 0 0 0 1.8532 4.1759 6.7414 6.7414 0 0 0 -3.3532 5.8241v4a.75.75 0 0 0 .5127.7114l2.9873.9956v1.543h-1.75a.75.75 0 0 0 0 1.5h16a.75.75 0 0 0 0-1.5h-1.75v-1.543l2.9873-.9956a.75.75 0 0 0 .5127-.7114v-4a6.7222 6.7222 0 0 0 -1.4058-4.1147l13.6558-10.9253 13.6558 10.9253a6.7224 6.7224 0 0 0 -1.4058 4.1147v4a.75.75 0 0 0 .5127.7114l2.9873.9956v1.543h-1.75a.75.75 0 0 0 0 1.5h16a.75.75 0 0 0 0-1.5h-1.75v-1.543l2.9873-.9956a.75.75 0 0 0 .5127-.7114v-4a6.722 6.722 0 0 0 -1.5-4.2307zm-34-40.2693v-.75h1.5137a4.3427 4.3427 0 0 0 3.2363-1.4307 4.32 4.32 0 0 0 2.75 1.38v.8007a3.75 3.75 0 0 1 -7.5 0zm-.916-5.7437.2519-1.0063h4.4141a3.7544 3.7544 0 0 1 3.75 3.75v.71a2.8515 2.8515 0 0 1 -2.0791-1.5449.7813.7813 0 0 0 -1.3418 0 2.8536 2.8536 0 0 1 -2.5654 1.5849h-1.87a4.4783 4.4783 0 0 1 -.5597-3.4937zm-3.584 17.7037v-3.46a5.2317 5.2317 0 0 1 4.258-5.13 5.1776 5.1776 0 0 0 7.9841 0 5.2309 5.2309 0 0 1 4.2579 5.13v3.46l-2 .6665v-4.1265a.75.75 0 0 0 -.75-.75h-11a.75.75 0 0 0 -.75.75v4.126zm3.5-2.7095h9.5v6.5h-9.5zm27.25 19a6.257 6.257 0 0 1 6.25 6.2495v4.3924a6.699 6.699 0 0 0 -1.9052-.8769 5.2173 5.2173 0 0 0 .4052-2.0155v-1.5a.75.75 0 0 0 -.75-.75h-.2637a2.8536 2.8536 0 0 1 -2.5654-1.5854.7813.7813 0 0 0 -1.3418 0 2.8536 2.8536 0 0 1 -2.5654 1.5854h-3.4688a6.2586 6.2586 0 0 1 6.2051-5.5zm-4.25 7.7495v-.75h1.5137a4.3427 4.3427 0 0 0 3.2363-1.4307 4.335 4.335 0 0 0 2.75 1.4043v.7764a3.75 3.75 0 0 1 -7.5 0zm-44 0v-1.14l1.9087-1.5269 5.5913 1.72v.9469a3.75 3.75 0 0 1 -7.5 0zm-3-1.5a6.25 6.25 0 0 1 12.4551-.75h-1.0923l-6.3921-1.9668a.748.748 0 0 0 -.69.1314l-2.5 2a.7492.7492 0 0 0 -.2807.5854v1.5a5.2142 5.2142 0 0 0 .3959 1.9858 4.206 4.206 0 0 1 -1.8959-3.4858zm2 17.25v-6.5h9.5v6.5zm13-3.7905-2 .6665v-4.126a.75.75 0 0 0 -.75-.75h-11a.75.75 0 0 0 -.75.75v4.126l-2-.6665v-3.4595a5.2318 5.2318 0 0 1 4.2578-5.13 5.1779 5.1779 0 0 0 7.9844 0 5.2318 5.2318 0 0 1 4.2578 5.13zm31 3.7905v-6.5h9.5v6.5zm13-3.7905-2 .6665v-4.126a.75.75 0 0 0 -.75-.75h-11a.75.75 0 0 0 -.75.75v4.126l-2-.6665v-3.4595a5.2309 5.2309 0 0 1 4.2579-5.13 5.1777 5.1777 0 0 0 7.9842 0 5.2309 5.2309 0 0 1 4.2579 5.13z"></path></svg>