<!-- icon666.com - MILLIONS vector ICONS FREE --><svg id="Layer_1" enable-background="new 0 0 120 120" viewBox="0 0 120 120" xmlns="http://www.w3.org/2000/svg"><g><g><circle cx="63.1" cy="62.7" fill="#70c4ff" r="39.2"></circle><g fill="#85e57a"><path d="m63.1 23.5c-3.1 0-6 .4-8.9 1-.9 2-1.4 4.1-1.4 6.2.1 4.4 3.8 9 8.1 8.4 2.4 4 7.3 5.9 12 6s9.2-1.5 13.6-3c2 1.3 2.6 4 2.5 6.4s-.8 4.8-.7 7.2 1.2 5 3.5 5.8c1.7.6 3.6.1 5.5 0 1.7-.1 3.4.2 5 .9-.1-21.5-17.6-38.9-39.2-38.9z"></path><path d="m64.4 74.5c-1.4-1.8-1.6-4.4-1.5-6.7s.3-4.8-.6-6.9-3.5-3.8-5.6-2.9c-.4 2-3 2.5-5.1 2.5-2.8.1-5.7.1-8.5.2-2 0-4.2.1-6 1-1.9.8-3.4 2.7-3.3 4.8.1 1.7 1.4 3.1 3 3.8 3.4 1.5 4.7-.4 5.6 3.5.7 2.9 1 6 3.8 7.8 1.6 1 3.8 1.3 4.8 2.9.9 1.3.6 3.1.1 4.6s-1.2 3-1.2 4.5c0 1.6 1.1 3.3 2.6 3.4 1.2 0 2.2-.9 2.8-2 1.1-2 1-4.3 1.3-6.6.3-2.2 1.1-4.7 3.1-5.6 1.4-.7 2.9-.5 4.4-.6 1.5-.2 3.1-.9 3.5-2.3.6-2.2-1.9-3.6-3.2-5.4z"></path></g></g><g><g fill="#5eacdd"><path d="m29.6 39.7 1.7-1.7c.1-.1.1-.4 0-.5l-1-1c-.1-.1-.4-.1-.5 0l-1.8 1.7c-.1.1-.1.4 0 .5l1 1c.2.2.4.2.6 0z"></path><path d="m34.7 37.8-3 3c-.1.1-.1.4 0 .5l1 1c.1.1.4.1.5 0l3-3c.1-.1.1-.4 0-.5l-1-1c-.1-.2-.4-.2-.5 0z"></path><path d="m48.5 55.2-1.7 1.7c-.1.1-.1.4 0 .5l1 1c.1.1.4.1.5 0l1.7-1.7c.1-.1.1-.4 0-.5l-1-1c-.1-.1-.4-.1-.5 0z"></path><path d="m47.1 50.2-3 3c-.1.1-.1.4 0 .5l1 1c.1.1.4.1.5 0l3-3c.1-.1.1-.4 0-.5l-1-1c-.1-.1-.3-.1-.5 0z"></path></g><g fill="#dae7ef"><path d="m19.6 56.3c-.2 0-.4 0-.5.1l-1.2 1.2c-.3.3-.2.7.1.9l6.6 2.9c.1 0 .2.1.3.3l2.9 6.6c.1.3.6.4.9.1l1.2-1.2c.1-.1.2-.3.1-.5l-1.8-8.3c0-.2-.2-.4-.4-.4z"></path><path d="m44.4 41.5-18.8-4.1c-.2 0-.5 0-.7.2l-3.4 3.4c-.4.4-.2 1 .2 1.2l15.4 6.8c.2.1.3.2.4.4l6.8 15.4c.2.5.8.6 1.2.2l3.3-3.3c.2-.2.2-.4.2-.7l-4-18.8c-.1-.4-.3-.6-.6-.7z"></path></g><g opacity=".05"><path d="m28.5 67.8c.1.3.6.4.9.1l-.6.6c-.3.3-.7.2-.9-.1l-2.9-6.6c0-.1-.1-.2-.3-.3l-6.7-3c-.3-.1-.4-.6-.1-.9l.6-.6c-.3.3-.2.7.1.9l6.7 3c.1 0 .2.1.3.3z"></path><path d="m44.9 64.1c.2.5.8.6 1.2.2l-.6.7c-.4.4-1 .2-1.2-.2l-6.8-15.3c-.1-.2-.2-.3-.4-.4l-15.3-6.8c-.5-.2-.6-.8-.2-1.2l.6-.6c-.4.4-.2 1 .2 1.2l15.4 6.8c.1.1.3.2.4.4z"></path></g><path d="m52.3 40-26.9 23.1c-.6.5-2 1-2.5.4-.5-.5-.1-1.9.4-2.5l23.1-26.9c1-1.1 2.4-1.9 3.8-2.1l2.5-.3c1.2-.1 2.1.7 1.9 1.9l-.3 2.5c-.1 1.5-.8 2.9-2 3.9z" fill="#fff"></path><g><path d="m51.7 37.9s-.1.1-.2 0c-.1 0-.2-.1-.2-.3 0-.4-.2-1.2-.8-1.7-.5-.5-1.3-.8-1.7-.8-.1 0-.2-.1-.2-.2s.1-.2.2-.2c.5 0 1.4.3 2.1.9.7.7 1 1.6.9 2.2 0 .1 0 .1-.1.1z" fill="#70c4ff"></path></g><path d="m54.7 33.7-.3 2.5c-.2 1.4-.9 2.8-2.1 3.8l-26.9 23.1c-.6.5-2 1-2.6.4l27.1-27.1s2.2-2.2 3.6-4.7c.8.3 1.3 1.1 1.2 2z" opacity=".05"></path></g><g><path d="m83.6 31.7-5.4 6c-.4.4-1 .4-1.4 0l-5.4-6c-1.3-1.5-2.1-3.4-2.1-5.4 0-4.5 3.6-8.1 8.1-8.1 4.5 0 8.1 3.6 8.1 8.1.2 2-.5 3.9-1.9 5.4z" fill="#ff5b64"></path><circle cx="77.6" cy="26.2" fill="#fff" r="5"></circle><circle cx="79.2" cy="24.3" fill="#ffcc70" r="1.2"></circle><path d="m82.5 27.4c-.2.8-.5 1.5-1 2.1-.9 1.1-2.3 1.8-3.9 1.8-.7 0-1.4-.2-2.1-.4l5-4.7c.2-.2.5-.2.7 0z" fill="#63c663"></path><path d="m81.5 29.5c-.9 1.1-2.3 1.8-3.9 1.8-2 0-3.8-1.2-4.6-3l3.3-3.1c.2-.2.5-.2.7 0z" fill="#69e26e"></path></g></g></svg>