<!-- icon666.com - MILLIONS vector ICONS FREE --><svg id="Layer_1" enable-background="new 0 0 52 52" viewBox="0 0 52 52" xmlns="http://www.w3.org/2000/svg"><g id="_x34_8"><g><g><g><g><g><g><g><g><g><g><g><g><g><g><g><g><g><g><g><path d="m33.2813683 3.49283c-.1700439-.1000366-.0300293.0999756-.2900391.2600098l-5.7699604 3.3199465-17.960021 10.3699951c-.5200195.3100586-.9400024 1.0400391-.9400024 1.6400146l-.3400269 17.1900006-1.8099976-1.0299683-.0499878-17.3699931c0-.6100464.4199829-1.3400269.9400024-1.6400146l23.7299796-13.7000125c.2600098-.1500244.5-.1699829.6800537-.0700073z" fill="#1c2841"></path></g></g></g><g><g><g><path d="m33.2783966 3.4948905c-.1658401-.0980148-.0226402.0980148-.2864037.2563114l-5.7676964 3.3248689-17.9585466 10.3665752c-.5202608.3090916-.9424162 1.040432-.9424162 1.643568l-.3393244 17.1821118-1.8089108-1.0296364-.0527349-17.370594c0-.6031837.4221544-1.3344765.9424162-1.6360664l23.7263331-13.698946c.2637653-.1507957.5050755-.1658432.6784668-.0678282z" fill="#4c5c75"></path></g></g></g><g><g><path d="m33.6057549 21.4754486-25.621388 14.7933083-.0514889-17.3727703c0-.60392.4213386-1.3341904.9456544-1.6384945l23.7253952-13.6978171c.5243149-.3042459.9503098-.0608034.954998.5430601z" fill="#1c2841"></path></g></g><g><g><path d="m32.8803253 21.0481091-24.151042 13.9546451-.05233-16.1111717c0-.3350029.282608-.8270607.5862389-1.0050087l23.5752172-13.6091642z" fill="#fff"></path></g></g><g><g><g><path d="m7.9852905 36.2673721.0077634 2.3340416 15.0188522 8.7183838c.5212555.3033981 1.3653526.3033981 1.8905029 0l23.7244225-13.6963043c.2645073-.1517105.3967743-.3539696.3967743-.5523567l-.0077858-2.3196239c0 .1983871-.132267.3967762-.3967781.5484638z" fill="#e9e7fc"></path></g></g></g><g><g><g><path d="m7.9870453 36.266449 15.0191784 8.7281914c.5206242.3025551 1.3672428.3025589 1.8912697.0000114l23.7229748-13.6964645c.5265045-.303978.5292625-.7943707.0086403-1.0969238l-15.0191803-8.7281933z" fill="#f8f9fe"></path></g></g></g><g><g><g><path d="m37.8403511 36.136631c-.0411453.0823784-.0961189.1510124-.1784973.205986l-5.3958931 3.1304054c-.2883606.1784973-.6590157.1784973-.9473763 0l-3.4325085-1.9771309c-.0961208-.0548897-.1510105-.1235237-.1922417-.2058983-.0960369-.205986-.0411472-.4806023.1922417-.604126l5.395895-3.1304893c.2883606-.1784973.6453552-.1784973.9336319 0l3.4462509 1.9771271c.2197267.1236077.2746201.3982277.1784974.604126z" fill="#b0b8cf"></path></g></g></g><g><g><g><path d="m37.8403511 36.136631c-.0411453.0823784-.0961189.1510124-.1784973.205986l-5.3958931 3.1304054c-.2883606.1784973-.6590157.1784973-.9473763 0l-3.4325085-1.9771309c-.0961208-.0548897-.1510105-.1235237-.1922417-.2058983.0274868-.0961227.0961208-.1647568.1922417-.2197304l5.395895-3.1304016c.2883606-.1784973.6453552-.1784973.9336319 0l3.4462509 1.9771271c.0961228.0548898.1510125.1235238.1784974.2196427z" fill="#e9e7fc"></path></g></g></g></g><g><g><g><g><path d="m12.5421467 33.5124588c.0432415-.0255585.1022243-.0216217.169054.015728.139575.0806046.2457228.2771835.2457228.4344406l19.4011545-11.2203312c0-.1572609-.1061478-.353838-.2437553-.4324741-.0668411-.0393181-.1277809-.041275-.1710224-.0157299z" fill="#101c32"></path></g></g></g><g><g><g><path d="m12.7118893 33.5285492c-.1368027-.0789833-.2451229-.0071793-.2455683.1500206l.4907398.283329c.0004454-.1571999-.1071091-.3536415-.2451715-.4333496z" fill="#4d5c75"></path></g></g></g></g></g></g></g></g></g></g></g></g></g></g></g></g></g></g></g><g><g><g><path d="m30.1972046 26.5141792-1.2281075.7136975-1.2361431-.7136879 1.2281056-.7136975z" fill="#4c5c75"></path></g></g><g><g><path d="m28.4939671 27.503994-1.2281056.7136955-1.236145-.7136879 1.2281055-.7136974z" fill="#4c5c75"></path></g></g><g><g><path d="m26.7890854 28.4947624-1.2281056.7136975-1.236145-.7136898 1.2281075-.7136975z" fill="#4c5c75"></path></g></g><g><g><path d="m25.0858498 29.4845753-1.2281075.7136974-1.236145-.7136879 1.2281074-.7136993z" fill="#4c5c75"></path></g></g><g><g><path d="m26.7158318 30.4256458-1.2281075.7136975-1.2361393-.7136841 1.2281075-.7136994z" fill="#4c5c75"></path></g></g><g enable-background="new"><g><g><path d="m23.3809662 30.4753437-1.2281037.7136974-1.236145-.7136879 1.2281056-.7136974z" fill="#4c5c75"></path></g></g><g><g><path d="m25.0109501 31.4164143-1.2281056.7136974-1.2361393-.713686 1.2281056-.7136955z" fill="#4c5c75"></path></g></g><g><g><path d="m21.6760864 31.4661121-1.2264633.7127438-1.2361431-.7136898 1.2264633-.7127419z" fill="#4c5c75"></path></g></g><g><g><path d="m29.9724922 32.3058777-1.2281074.7136993-1.2361393-.7136841 1.2281074-.7136993z" fill="#4c5c75"></path></g></g><g><g><path d="m26.6392765 32.3565292-1.2281055.7136994-1.2361374-.7136879 1.2281036-.7136955z" fill="#4c5c75"></path></g></g><g><g><path d="m23.3060703 32.4071846-1.2264633.7127419-1.2361393-.7136879 1.2264633-.71274z" fill="#4c5c75"></path></g></g><g><g><path d="m19.9728489 32.455925-1.2281056.7136993-1.2361431-.7136917 1.2281037-.7136955z" fill="#4c5c75"></path></g></g><g><g><path d="m28.2676105 33.2966499-1.2281055.7136956-1.2361393-.7136841 1.2281056-.7136994z" fill="#4c5c75"></path></g></g><g><g><path d="m24.9343967 33.3472977-1.2264633.7127418-1.2361393-.7136841 1.2264633-.7127418z" fill="#4c5c75"></path></g></g><g><g><path d="m21.6028309 33.3969955-1.2281037.7136994-1.2361392-.7136879 1.2281055-.7136955z" fill="#4c5c75"></path></g></g><g><g><path d="m33.3040581 32.2561798-11.4524613 6.6554451-1.2361393-.7136841 11.4524594-6.6554451z" fill="#4c5c75"></path></g></g></g><g><g><path d="m18.2679691 33.4466934-1.2281074.7136994-1.236145-.7136879 1.2281074-.7136994z" fill="#4c5c75"></path></g></g><g><g><path d="m24.8594913 35.2772293-1.2281036.7136993-1.2361393-.7136878 1.2281037-.7136956z" fill="#4c5c75"></path></g></g><g><g><path d="m23.2311592 34.3371124-1.2281055.7136956-1.2361393-.7136841 1.2281055-.7136956z" fill="#4c5c75"></path></g></g><g><g><path d="m23.1546116 36.2679977-1.2281075.7136994-1.2361393-.7136841 1.2281075-.7136993z" fill="#4c5c75"></path></g></g><g><g><path d="m21.5262794 35.3278809-1.2281074.7136955-1.2361393-.7136841 1.2281075-.7136993z" fill="#4c5c75"></path></g></g><g><g><path d="m19.8979511 34.387764-1.2281074.7136993-1.2361393-.7136841 1.2281074-.7136993z" fill="#4c5c75"></path></g></g><g><g><path d="m21.4513741 37.2578125-1.2281056.7136955-1.2361393-.7136841 1.2281056-.7136955z" fill="#4c5c75"></path></g></g><g><g><path d="m21.3748207 39.188694-1.2281074.7136993-1.2361393-.713684 1.2281074-.7136994z" fill="#4c5c75"></path></g></g><g><g><path d="m19.6715832 40.1785088-1.2281056.7136955-1.2361374-.7136841 1.2281037-.7136955z" fill="#4c5c75"></path></g></g><g><g><path d="m19.7464943 38.2485809-2.9313431 1.7035103-1.2361393-.7136841 2.9313431-1.7035102z" fill="#4c5c75"></path></g></g><g><g><path d="m19.82304 36.3176956-4.6362219 2.6942749-1.2361393-.7136841 4.6362238-2.6942787z" fill="#4c5c75"></path></g></g><g><g><path d="m18.1947136 35.3775787-1.2281056.7136956-1.2361383-.7136841 1.2281046-.7136955z" fill="#4c5c75"></path></g></g><g><g><path d="m16.4898338 36.3683472-2.931343 1.7035103-1.2361393-.7136841 2.931343-1.7035103z" fill="#4c5c75"></path></g></g><g><g><path d="m13.1566133 36.4170876-1.2281055.7136993-1.2361441-.7136879 1.2281046-.7136993z" fill="#4c5c75"></path></g></g><g><g><path d="m16.5647316 34.4365082-1.2281055.7136955-1.2361441-.7136879 1.2281046-.7136955z" fill="#4c5c75"></path></g></g><g><g><path d="m14.8598509 35.4272766-1.2281075.7136955-1.236144-.7136879 1.2281074-.7136955z" fill="#4c5c75"></path></g></g><g><g><path d="m35.3102036 23.5428295-2.9329873 1.7044659-1.2361431-.7136898 2.9329853-1.7044659z" fill="#4c5c75"></path></g></g><g><g><path d="m40.1202927 28.2950172-1.2281037.7136975-1.2361412-.713686 1.2281075-.7136974z" fill="#4c5c75"></path></g></g><g><g><path d="m38.417057 29.284832-1.2281074.7136974-.6172409-.3563652 1.2281036-.7136974z" fill="#4c5c75"></path></g></g><g><g><path d="m41.8251762 27.3042488-1.2281074.7136974-.6172409-.3563652 1.2281036-.7136974z" fill="#4c5c75"></path></g></g><g enable-background="new"><g><g><path d="m38.5685158 25.424015-1.2281075.7136975-1.629982-.9410706-1.7048835.9907685-1.2344819-.7127305 2.9329873-1.7044658z" fill="#4c5c75"></path></g></g><g><g><path d="m36.8636322 26.4147835-1.2281036.7136974-1.2361412-.713686 1.2281074-.7136955z" fill="#4c5c75"></path></g></g><g><g><path d="m40.196846 26.3641338-2.9329872 1.7044659-1.2361374-.713686 2.9329872-1.7044659z" fill="#4c5c75"></path></g></g><g><g><path d="m35.1603966 27.4045982-1.2281075.7136975-1.2361374-.713686 1.2281037-.7136975z" fill="#4c5c75"></path></g></g><g><g><path d="m36.7887268 28.3447151-1.2281036.7136975-1.2361412-.7136841 1.2281074-.7136975z" fill="#4c5c75"></path></g></g><g><g><path d="m33.455513 28.3953667-1.2281036.7136974-1.2361412-.713686 1.2281074-.7136974z" fill="#4c5c75"></path></g></g><g><g><path d="m31.7522774 29.3851795-1.2281056.7136975-1.2361393-.713686 1.2281056-.7136975z" fill="#4c5c75"></path></g></g></g><g><g><path d="m33.5320663 26.4644814-1.2281036.7136974-1.2361393-.7136841 1.2281056-.7136974z" fill="#4c5c75"></path></g></g><g><g><path d="m31.9020863 25.5234108-1.2281075.7136974-1.236145-.7136879 1.2281074-.7136974z" fill="#4c5c75"></path></g></g><g><g><path d="m31.8271866 27.4552517-1.2281056.7136974-1.2361393-.713686 1.2281056-.7136974z" fill="#4c5c75"></path></g></g><g><g><path d="m30.123951 28.4450645-1.2281075.7136975-1.2361393-.713686 1.2281075-.7136974z" fill="#4c5c75"></path></g></g><g><g><path d="m36.7121735 30.2756004-1.2281037.7136975-1.2361412-.713686 1.2281075-.7136975z" fill="#4c5c75"></path></g></g><g><g><path d="m35.083847 29.3354855-1.2281074.7136974-1.2361374-.713686 1.2281075-.7136974z" fill="#4c5c75"></path></g></g><g><g><path d="m35.0089378 31.2654133-1.2281074.7136974-1.2361374-.713686 1.2281074-.7136974z" fill="#4c5c75"></path></g></g><g><g><path d="m33.3806114 30.3252983-1.2281074.7136974-1.2361393-.7136859 1.2281055-.7136975z" fill="#4c5c75"></path></g></g><g><g><path d="m31.6757298 31.3160667-1.2281075.7136956-1.2361393-.7136841 1.2281075-.7136974z" fill="#4c5c75"></path></g></g><g><g><path d="m30.0473957 30.375948-1.2281055.7136974-1.2361393-.713686 1.2281055-.7136974z" fill="#4c5c75"></path></g></g><g><g><path d="m28.4190693 29.435833-1.2281075.7136974-1.2361374-.713686 1.2281056-.7136974z" fill="#4c5c75"></path></g></g><g><g><path d="m28.3441601 31.3657608-1.2281075.7136993-1.2361393-.7136859 1.2281075-.7136994z" fill="#4c5c75"></path></g></g><g><g><path d="m26.5627289 34.2874184-1.2264614.7127418-1.2361393-.7136879 1.2264633-.7127418z" fill="#4c5c75"></path></g></g></g><g><g><g><path d="m9.788785 18.6679859.0010223.3605118-.5133972.2964096-.0010223-.3605118z" fill="#dedffb"></path></g></g><g><g><path d="m13.302721 16.6392136.0010224.3605117-2.6810723 1.5479184-.0010223-.3605118z" fill="#dedffb"></path></g></g><g enable-background="new"><g><g><path d="m27.1988029 21.3359413-3.2840671 1.8960495.0010338.3605766 3.2830333-1.895502z" fill="#dedffb"></path></g></g><g><g><path d="m24.9791794 23.5279369-3.7106133 2.1422749.0010357.358324 3.7095776-2.1417274z" fill="#dedffb"></path></g></g><g><g><path d="m27.1988029 19.51511-4.8731555 2.8135243.0010337.3605156 4.8721218-2.8129158z" fill="#f45170"></path></g></g><g><g><path d="m25.7833519 23.9718552.0010223.3605156-6.7940044 3.9225196-.0010223-.3605156z" fill="#dedffb"></path></g></g><g><g><path d="m23.4146652 23.5207558.0010224.3605156-4.3467751 2.5096111-.0010223-.3605156z" fill="#dedffb"></path></g></g><g><g><path d="m27.1988029 17.6964703-6.5762901 3.7968464.0010338.3605155 6.5752563-3.7962989z" fill="#dedffb"></path></g></g><g><g><path d="m20.5193748 26.1027775.0010167.3583298-3.8809224 2.240652-.0010147-.3583297z" fill="#dedffb"></path></g></g><g><g><path d="m26.4480038 17.2392178.0010166.3583355-5.7443581 3.3165054-.0010166-.3583336z" fill="#dedffb"></path></g></g><g><g><path d="m27.1988029 20.4255257-9.8657741 5.6959991.0010338.3605156 9.8647403-5.6953907z" fill="#dedffb"></path></g></g><g><g><path d="m24.730032 20.0322094-5.8695622 3.3888035.0010338.3583221 5.8685284-3.3881931z" fill="#dedffb"></path></g></g><g><g><path d="m27.1988029 14.9848814-5.2339134 3.0218363.0010338.3605156 5.2328796-3.0212288z" fill="#78e75a"></path></g></g><g><g><path d="m27.1988029 12.255765-3.3097496 1.9108982.0010357.3605156 3.3087139-1.9102908z" fill="#dedffb"></path></g></g><g><g><path d="m18.4227314 28.2215118.0010223.3605156-4.5445346 2.6237889-.0010224-.3605156z" fill="#dedffb"></path></g></g><g><g><path d="m18.651453 26.2707977.0010204.3605156-3.5804872 2.0671959-.0010223-.3605156z" fill="#57b3fe"></path></g></g><g><g><path d="m27.1988029 13.1662407-5.9559173 3.4386444.0009727.3605156 5.9549446-3.438097z" fill="#dedffb"></path></g></g><g><g><path d="m24.5306416 17.4357872.0010223.3605118-5.8945885 3.4032421-.0010223-.3605118z" fill="#dedffb"></path></g></g><g><g><path d="m27.1988029 10.4371252-4.898838 2.828373.0010357.358324 4.8978023-2.8277645z" fill="#57b3fe"></path></g></g><g><g><path d="m21.6943684 22.693119.0010223.3605195-7.4100609 4.2782001-.0010214-.3605194z" fill="#dedffb"></path></g></g><g><g><path d="m25.757658 14.9087067.0010166.3583345-6.7940044 3.9225206-.0010166-.3583355z" fill="#dedffb"></path></g></g><g><g><path d="m13.2449894 31.2108822.0010223.3605156-2.5821914 1.4908314-.0010224-.3605195z" fill="#dedffb"></path></g></g><g><g><path d="m16.2391663 28.5739574.0010147.3583298-5.5789376 3.2210026-.0010156-.3583298z" fill="#dedffb"></path></g></g><g><g><path d="m23.3889637 14.4554224.0010223.3605194-4.3467731 2.5096121-.0010223-.3605194z" fill="#dedffb"></path></g></g><g><g><path d="m20.1712265 20.8631172.0010166.3583336-5.2632894 3.0387631-.0010157-.3583355z" fill="#dedffb"></path></g></g><g><g><path d="m19.8067513 21.9642811.0010204.3605137-5.8108969 3.3549232-.0010223-.3605118z" fill="#dedffb"></path></g></g><g><g><path d="m14.0384693 28.9341049.0010214.3605156-3.3808184 1.9519177-.0010214-.3605156z" fill="#dedffb"></path></g></g><g><g><path d="m21.2309093 18.4304657.0010224.3605118-5.4781752 3.1628265-.0010223-.3605118z" fill="#dedffb"></path></g></g><g><g><path d="m16.8177528 26.4190636.0010224.3605117-6.1626797 3.5580254-.0010214-.3605118z" fill="#dedffb"></path></g></g><g><g><path d="m24.4715748 10.1908379-3.8747444 2.2370901.0009746.3605156 3.8737698-2.2365427z" fill="#dedffb"></path></g></g><g><g><path d="m20.4936752 17.037447.0010224.3605137-3.8809223 2.2406501-.0010224-.3605117z" fill="#dedffb"></path></g></g><g><g><path d="m13.5503378 27.3950768.0010223.3605213-2.8978414 1.673069-.0010214-.3605194z" fill="#dedffb"></path></g></g><g><g><path d="m25.9847736 12.0484867-8.6774273 5.009903.0010357.3583221 8.6763916-5.0092926z" fill="#dedffb"></path></g></g><g><g><path d="m27.1988029 9.5267096-8.3640155 4.8289747.0010357.3605146 8.3629798-4.8283663z" fill="#dedffb"></path></g></g><g><g><path d="m17.9116669 23.968832.0010147.358326-7.2617398 4.1925678-.0010156-.3583279z" fill="#dedffb"></path></g></g><g><g><path d="m18.1036358 21.1464214.0010204.3605118-5.2785044 3.0475464-.0010223-.3605118z" fill="#dedffb"></path></g></g><g><g><path d="m18.3970375 19.1583633.0010166.3583336-4.5445356 2.6237889-.0010157-.3583336z" fill="#dedffb"></path></g></g><g><g><path d="m13.3284216 25.7045479.0010223.3605118-2.6810722 1.5479183-.0010223-.3605137z" fill="#dedffb"></path></g></g><g><g><path d="m18.6257515 17.2054653.0010223.3605194-3.5804882 2.0671959-.0010223-.3605194z" fill="#dedffb"></path></g></g><g><g><path d="m14.1416264 24.3443089.0010156.3583335-3.4967975 2.018879-.0010167-.3583355z" fill="#dedffb"></path></g></g><g><g><path d="m21.6686745 13.6299706.0010166.3583345-7.4100609 4.2782011-.0010166-.3583355z" fill="#b0b8cf"></path></g></g><g><g><path d="m16.2134666 19.5086269.0010205.3605137-5.5789376 3.2210007-.0010223-.3605118z" fill="#dba660"></path></g></g><g><g><path d="m19.7810497 12.8989487.0010224.3605117-5.8108979 3.3549233-.0010223-.3605118z" fill="#dedffb"></path></g></g><g><g><path d="m14.0127687 19.8687725.0010224.3605194-3.3808184 1.9519158-.0010223-.3605195z" fill="#dedffb"></path></g></g><g><g><path d="m16.7920589 17.3559151.0010167.3583259-6.1626797 3.5580254-.0010166-.358326z" fill="#dedffb"></path></g></g><g><g><path d="m13.5246439 18.3319302.0010157.3583335-2.8978405 1.673069-.0010167-.3583335z" fill="#dedffb"></path></g></g><g><g><path d="m17.8859653 14.9034977.0010224.3605194-7.2617397 4.1925678-.0010224-.3605194z" fill="#dedffb"></path></g></g></g><g><g><path d="m9.7913618 19.5769196.0010223.3605194-.5133972.2964096-.0010223-.3605194z" fill="#dedffb"></path></g></g><g><g><path d="m9.7939386 20.4858532.0010157.3583336-.5133972.2964096-.0010157-.3583336z" fill="#72d561"></path></g></g><g><g><path d="m9.7965155 21.3947945.0010156.3583259-.5133972.2964115-.0010157-.3583278z" fill="#72d561"></path></g></g><g><g><path d="m9.7990866 22.3015423.0010223.3605194-.5133982.2964115-.0010223-.3605213z" fill="#72d561"></path></g></g><g><g><path d="m9.8016634 23.2104836.0010223.3605117-.5133981.2964115-.0010224-.3605136z" fill="#dedffb"></path></g></g><g><g><path d="m9.8042402 24.1194172.0010157.3583336-.5133972.2964115-.0010166-.3583336z" fill="#dedffb"></path></g></g><g><g><path d="m13.2192955 22.1477337.0010157.3583355-2.5821915 1.4908275-.0010157-.3583335z" fill="#dedffb"></path></g></g><g><g><path d="m9.8068104 25.0261726.0010223.3605137-.5133972.2964096-.0010223-.3605117z" fill="#dedffb"></path></g></g><g><g><path d="m12.2584877 24.5211182.0010214.3605117-1.6162357.933136-.0010224-.3605137z" fill="#dedffb"></path></g></g><g><g><path d="m14.9198837 22.0741386.0010224.3605118-4.2802096 2.47118-.0010223-.3605118z" fill="#dedffb"></path></g></g><g><g><path d="m9.8093872 25.9351063.0010223.3605137-.5133972.2964096-.0010223-.3605118z" fill="#dedffb"></path></g></g><g><g><path d="m9.811964 26.8440399.0010167.3583355-.5133982.2964096-.0010157-.3583336z" fill="#dedffb"></path></g></g><g><g><path d="m9.8144855 27.7333183.0010224.3605137-.5133982.2964096-.0010214-.3605118z" fill="#f45170"></path></g></g><g><g><path d="m9.8170624 28.642252.0010156.3583278-.5133972.2964096-.0010156-.3583259z" fill="#f45170"></path></g></g><g><g><path d="m9.8196325 29.5490017.0010224.3605194-.5133972.2964096-.0010224-.3605194z" fill="#f45170"></path></g></g><g><g><path d="m9.8222094 30.457943.0010223.3605117-.5133972.2964096-.0010224-.3605117z" fill="#f45170"></path></g></g><g><g><path d="m9.8247862 31.3668766.0010223.3605156-.5133972.2964115-.0010223-.3605175z" fill="#dedffb"></path></g></g><g><g><path d="m9.827364 32.2758141.0010156.3583297-.5133981.2964096-.0010157-.3583297z" fill="#dedffb"></path></g></g><g><g><path d="m9.8299341 33.1825638.0010224.3605194-.5133982.2964096-.0010214-.3605156z" fill="#dedffb"></path></g></g></g><g><g><g enable-background="new"><g><g><path d="m40.541317 13.8227863c0 .710022-.5 1.6000366-1.1299438 1.960022l-8.8099995 5.0800171c-.3500366.2099609-.6700439.2000122-.8700562.039978l-.8799438-.5c-.2000122-.1199951-.3300171-.3800049-.3300171-.7299805l-.0300293-9.8400269.9400024.5400391 11.080019-6.3900146z" fill="#dedffb"></path></g></g><g><g><path d="m29.7908707 20.9462776-.9412556-.547411c-.2002621-.1201591-.3271027-.3738384-.3271027-.7276287l-.033411-9.843276.9412956.5473709.033371 9.8433161c0 .3537922.1268406.6074715.3271027.7276287z" fill="#dedffb"></path></g></g><g><g><path d="m29.4318275 10.3776045 11.0817337-6.393136.0306053 9.836318c.0020256.7150469-.5077667 1.5980415-1.1343155 1.9597807l-8.8057079 5.0839767c-.630806.3641968-1.1396732.0693245-1.1417007-.6457214z" fill="#f3f1fc"></path></g><g><path d="m40.0624275 13.8231325c0 .5460615-.4119263 1.264555-.8909225 1.5423508l-8.803936 5.0869284c-.1436634.0766563-.2299099.0862446-.2777977.0862446-.1341324 0-.1437206-.220377-.1437206-.3257427l-.0382996-9.5607281 10.1259708-5.8437781z" fill="#fff"></path></g></g><g><path d="m40.5113487 3.3528154v.6300049l-11.080019 6.3999634-.9400024-.5499878v-.6300047c0-.7199707.5-1.5999756 1.1300049-1.9599609l8.8099995-5.0900269c.3099976-.1799927.6000366-.2000122.8099976-.0800171l.9400024.5500488c-.0199585-.0100098-.0299683-.0200195-.0499878-.0200195.2299804.1099851.3800048.3699949.3800048.7499998z" fill="#df3260"></path></g><g><g><path d="m39.3700562 2.7020519c.6265488-.3617389 1.1396751-.0693166 1.141716.650629l.0017891.6317873-11.0817204 6.398035-.001791-.6317873c-.0020409-.7199459.5034943-1.6004906 1.1343002-1.9646873z" fill="#f45170"></path></g></g><g><path d="m39.2380943 2.0771663c-.2071495-.120402-.4937515-.1040224-.8090401.0780272l-8.805687 5.0839815c-.6308174.3641806-1.136343 1.2447248-1.134306 1.9646926l.0017929.6317949.9409695.5468416-.0017929-.6317949c-.002037-.7199678.5035286-1.6005125 1.134306-1.9646931l8.8057308-5.0839815c.3152847-.1820087.6018448-.1983883.8090363-.078027z" fill="#df3260"></path></g></g></g><g><g><g><path d="m33.5102158 11.8039694v.3825683l-1.7723561 1.0228024v-.3825684z" fill="#4c5c75"></path></g><g><path d="m32.3156204 11.2964525-1.1711502 1.8270149-.2185898-.1639785.8744545-1.3663416-.8822689-.3591213.2185898-.4138298z" fill="#4c5c75"></path></g></g></g><g><g><g><g><g><path d="m31.6049519 17.1728477.0039749 1.2924538-1.2213097.6501579-.0039749-1.2924537z" fill="#b28afd"></path></g></g><g><g><path d="m33.4182281 16.2075596.0011178.3638363-.8132439.4329262-.0011177-.3638363z" fill="#dedffb"></path></g></g><g><g><path d="m39.4256172 13.009553.0011215.3638372-3.4943733 1.8602114-.0011177-.3638373z" fill="#57b3fe"></path></g></g><g><g><path d="m35.5318069 15.0824051.0011178.3638363-1.6121254.8582077-.0011178-.3638363z" fill="#dedffb"></path></g></g><g><g><path d="m33.4210434 17.1240005.0011215.3638363-.8132477.4329262-.0011177-.3638363z" fill="#dedffb"></path></g></g><g><g><path d="m38.2875938 14.5333166.0011177.3638363-4.365097 2.3237391-.0011177-.3638382z" fill="#dedffb"></path></g></g></g></g><g><g><g><g><path d="m31.6049519 14.7405376.0039749 1.2924557-1.2213097.6501579-.0039749-1.2924547z" fill="#dba660"></path></g></g><g><g><path d="m33.4182281 13.7752495.0011178.3638372-.8132439.4329272-.0011177-.3638373z" fill="#dedffb"></path></g></g><g><g><path d="m39.4256172 10.5772448.0011215.3638362-3.4943733 1.8602114-.0011177-.3638363z" fill="#dedffb"></path></g></g><g><g><path d="m35.5318069 12.6500959.0011178.3638373-1.6121254.8582077-.0011178-.3638363z" fill="#dedffb"></path></g></g><g><g><path d="m33.4210434 14.6916914.0011215.3638363-.8132477.4329271-.0011177-.3638363z" fill="#dedffb"></path></g></g><g><g><path d="m38.2875938 12.1010075.0011177.3638372-4.365097 2.3237371-.0011177-.3638362z" fill="#dedffb"></path></g></g></g></g></g></g><g><g><g><path d="m30.644989 8.2885752c.25313-.1461449.4563007-.0303707.4571037.2532215.0008049.2835913-.201046.6332045-.4541759.7793484-.2467995.1424904-.4499588.0267096-.4507637-.2568817-.000803-.2835923.2010364-.6331988.4478359-.7756882z" fill="#fff"></path></g></g><g><g><path d="m31.9612675 7.5286212c.25313-.1461449.4499607-.0267096.4507618.2568822.0008049.2835913-.1947021.6295433-.447834.7756882-.2467995.1424894-.4499683.0267153-.4507732-.256876-.0008031-.2835923.2010459-.633205.4478454-.7756944z" fill="#fff"></path></g></g><g><g><path d="m33.2775383 6.7686729c.2467995-.1424894.4499664-.0267153.4507713.2568765.0008049.2835913-.201046.6332045-.4478455.7756944-.2531319.1461444-.4499588.0267091-.4507637-.2568827-.0008048-.2835913.194706-.6295433.4478379-.7756882z" fill="#fff"></path></g></g><g><g><path d="m39.2956886 3.2940907c.2467995-.1424899.4499588-.0267096.4507637.2568822s-.2010345.6331983-.447834.7756882l-3.4488869 1.9912152c-.2467995.1424899-.4499702.0267158-.4507751-.256876-.0008011-.2835917.201046-.6332045.4478493-.7756944z" fill="#fff"></path></g></g></g><g><g><g><g><g><g><path d="m19.2813663 46.3128357v1.2399902l-4.2300405 2.4500122-12.6499636-7.3600464v-1.2399902l1.3800049-.7999878.4699709.2799683h.0100098l1.039978-.6099854v-.5499878l1.3300171-.7600097z" fill="#ef7b56"></path></g></g></g></g></g></g><g><g><g><g><g><g><path d="m19.2848759 47.5550423-4.2320185 2.4449424-12.6538851-7.3524131v-1.2418061l1.3790095-.7985687.4714074.2744064 1.0553689-.612133-.003521-.545269 1.3262539-.7598572 12.6538639 7.3523903z" fill="#9ea9c9"></path></g></g></g></g></g><g><g><g><g><g enable-background="new"><g><g><path d="m17.9565258 47.6235008-12.6531935-7.3532333-.0015449-.5450096 12.6531935 7.3532333z" fill="#febc1f"></path></g></g><g><g><path d="m17.9549809 47.0784912-12.6531935-7.3532333 1.3260994-.7612801 12.6531934 7.3532295z" fill="#ffd06c"></path></g></g><g><g><path d="m16.4314365 48.5040092-12.6531939-7.3532295 1.5250897-.8805122 12.6531935 7.3532333z" fill="#f9a83d"></path></g></g><g><g><path d="m15.0505285 48.760273-12.6531934-7.3532295 1.3793625-.8012734 12.653194 7.3532333z" fill="#ffd06c"></path></g></g><g><g><path d="m15.0526867 49.9996529-12.6531935-7.3532296-.0021581-1.2393798 12.6531934 7.3532295z" fill="#febc1f"></path></g></g><g><g><path d="m19.2810802 46.3172073.0021592 1.2393837-4.2305527 2.4430619-.0021582-1.2393799 1.3793631-.8012696.0015449.5450058 1.5250893-.8805084-.0015449-.5450096z" fill="#ef7b56"></path></g></g></g></g></g><g><g><g><path d="m9.6621552 40.9175301-.5740529.3336029-.2428522-.1402092.5740528-.3336029z" fill="#4c5c75"></path></g></g><g><g><path d="m10.2567377 41.2608147-.9984131.5802116-.2428531-.1402092.998414-.5802154z" fill="#4c5c75"></path></g></g><g><g><path d="m18.5390339 46.0425987-.5740528.3336029-.2428532-.1402092.5740528-.3336067z" fill="#4c5c75"></path></g></g><g><g><path d="m17.9444504 45.6993141-.5740528.3336029-.2428532-.1402092.5740528-.3336029z" fill="#4c5c75"></path></g></g><g><g><path d="m17.3582439 45.3608704-.5740528.3336029-.2428589-.1402169.5740529-.3336029z" fill="#4c5c75"></path></g></g><g><g><path d="m16.7636604 45.0175858-.5740528.3336029-.2428589-.1402131.5740528-.3336029z" fill="#4c5c75"></path></g></g><g><g><path d="m16.177454 44.6791382-.998414.5802154-.2428589-.140213.998414-.5802154z" fill="#4c5c75"></path></g></g><g><g><path d="m15.5828714 44.3358574-.5740528.3336029-.2428598-.1402168.5740528-.3336029z" fill="#4c5c75"></path></g></g><g><g><path d="m14.9966574 43.997406-.5740528.3336029-.2512293-.1450462.5740528-.3336029z" fill="#4c5c75"></path></g></g><g><g><path d="m14.4020739 43.6541252-.5740519.3336029-.2428598-.1402168.5740528-.3336029z" fill="#4c5c75"></path></g></g><g><g><path d="m13.8074913 43.3108406-.5740528.3336029-.2428598-.140213.5740528-.3336029z" fill="#4c5c75"></path></g></g><g><g><path d="m13.2212849 42.972393-.9984141.5802155-.2428598-.140213.998414-.5802155z" fill="#4c5c75"></path></g></g><g><g><path d="m12.6183243 42.6242752-.5740528.3336029-.2344818-.1353798.5740518-.3336029z" fill="#4c5c75"></path></g></g><g enable-background="new"><g><g><path d="m8.4813652 40.2358017-.5740528.3336029-.2428594-.1402168.5740533-.3336029z" fill="#4c5c75"></path></g></g><g><g><path d="m9.0759487 40.5790825-.5740528.3336029-.2428598-.140213.5740528-.3336029z" fill="#4c5c75"></path></g></g></g><g><g><path d="m7.3005757 39.5540733-.998414.5802117-.2428594-.140213.9984141-.5802155z" fill="#4c5c75"></path></g></g><g><g><path d="m7.8951588 39.8973541-.5740524.3336029-.2428598-.140213.5740528-.3336029z" fill="#4c5c75"></path></g></g><g><g><path d="m12.0321178 42.2858276-.5740528.3336029-.2344818-.1353759.5740528-.3336029z" fill="#4c5c75"></path></g></g><g><g><path d="m10.8513212 41.6040955-.5740528.3336029-.2512293-.1450463.5740528-.3336029z" fill="#4c5c75"></path></g></g><g><g><path d="m11.4375353 41.9425468-.5740528.3336029-.2428599-.1402168.5740528-.3336029z" fill="#4c5c75"></path></g></g></g><g><g><g><path d="m4.6742887 41.8743057-.574109.3336373-.2428596-.1402169.5741093-.3336334z" fill="#4c5c75"></path></g></g><g><g><path d="m4.5040102 41.2844467-.998414.5802117-.2428594-.1402131.998414-.5802154z" fill="#4c5c75"></path></g></g><g><g><path d="m6.4412847 42.8944817-.5741091.3336372-.2344828-.1353798.5741091-.3336334z" fill="#4c5c75"></path></g></g><g><g><path d="m5.8550782 42.5560379-.5741091.3336334-.2344827-.135376.5741095-.3336372z" fill="#4c5c75"></path></g></g><g><g><path d="m7.6388278 43.5858841-.5741091.3336372-.2512293-.1450462.5741096-.3336372z" fill="#4c5c75"></path></g></g><g><g><path d="m8.2250347 43.9243317-.5741095.3336372-.2428523-.140213.5741091-.3336372z" fill="#4c5c75"></path></g></g><g><g><path d="m11.1812038 45.6310768-.574109.3336373-.2428599-.1402169.5741101-.3336372z" fill="#4c5c75"></path></g></g><g><g><path d="m10.5866203 45.2877922-.574109.3336372-.2428589-.140213.574109-.3336372z" fill="#4c5c75"></path></g></g><g><g><path d="m10.4247189 44.7027702-.9984141.5802117-.2428589-.140213.9984141-.5802155z" fill="#4c5c75"></path></g></g><g><g><path d="m9.4058313 44.6060638-.574109.3336373-.2428599-.1402168.5741091-.3336335z" fill="#4c5c75"></path></g></g><g><g><path d="m8.8196173 44.2676125-.5741091.3336372-.2512288-.1450462.5741086-.3336373z" fill="#4c5c75"></path></g></g><g><g><path d="m5.2604952 42.2127533-.5741096.3336372-.2428593-.1402168.574109-.3336334z" fill="#4c5c75"></path></g></g><g><g><path d="m7.4685497 42.9960213-.998414.5802154-.2428594-.140213.9984136-.5802154z" fill="#4c5c75"></path></g></g><g><g><path d="m11.7757874 45.9743576-.5741091.3336372-.2512293-.1450462.5741091-.3336372z" fill="#4c5c75"></path></g></g><g><g><path d="m14.7235804 47.6762695-.5741101.3336335-.2428589-.1402131.5741091-.3336372z" fill="#4c5c75"></path></g></g><g><g><path d="m15.3181629 48.0195503-.5741091.3336373-.2344827-.1353798.5741091-.3336335z" fill="#4c5c75"></path></g></g><g><g><path d="m14.1373739 47.337822-.57411.3336372-.2428589-.1402168.5741091-.3336373z" fill="#4c5c75"></path></g></g><g><g><path d="m13.3808813 46.4095078-.998414.5802154-.2512293-.1450462.998414-.5802155z" fill="#4c5c75"></path></g></g><g><g><path d="m13.5427904 46.9945374-.5741091.3336372-.2428598-.140213.5741091-.3336373z" fill="#4c5c75"></path></g></g><g><g><path d="m12.3619938 46.3128052-.5741091.3336372-.2428522-.140213.5741091-.3336334z" fill="#4c5c75"></path></g></g></g></g></g></g><g><g><g enable-background="new"><g><g><path d="m49.6013756 20.1327839v1.4500122c0 .210022-.1400146.4200439-.4200439.5800171l-4.4299927 2.5800171c-.5599976.3200073-1.460022.3200073-2.0200195 0l-4.4699707-2.5800171c-.2800293-.1599731-.4199829-.3800049-.4199829-.5900269l.0100098-1.3999634c-.0300293-.2200317.1099854-.4500122.4099731-.6300049l4.4400024-2.5800171c.5499878-.3200073 1.460022-.3200073 2.0100098 0l4.4699707 2.5800171c.2800292.169983.4200439.380005.4200439.5899659z" fill="#5ec363"></path></g></g></g></g></g><g><g><g><g><path d="m49.6002312 20.136404v1.44491c0 .2114563-.1359482.4229603-.4154015.5815411l-4.4335518 2.5755672c-.5589066.32477-1.4577026.32477-2.0241737 0l-4.4637909-2.5755672c-.2794533-.1585808-.4229622-.3776436-.4229622-.5891018l.0075607-1.44491c0 .2114582.1359482.4229622.4229622.5891037l4.4637909 2.5755653c.5589104.32477 1.4577065.32477 2.016613 0l4.4335518-2.5755653c.2794533-.1661415.4154015-.3700848.4154015-.581543z" fill="#5ec363"></path></g></g></g><g><g><g><path d="m49.1811867 19.5452118c.5593872.3229618.562336.8463879.0065918 1.1693516l-4.4364014 2.5781555c-.555748.3229656-1.4593925.3229675-2.0187798.0000038l-4.465416-2.5781078c-.5593872-.3229618-.5623398-.8463879-.0065918-1.1693535l4.4364014-2.5781536c.555748-.3229656 1.4593925-.3229675 2.0187798-.0000057z" fill="#78e75a"></path></g></g></g><g><g enable-background="new"><g><g><path d="m47.1274567 20.4455681c-.0352821.1129169-.1576157.2328987-.3646393.3528805l-.0541039.032938c-.049408.0282288-.108223.0423431-.1811485.0423431-.0705757 0-.1340981-.0141144-.1811371-.0423431-.049408-.0282288-.0729256-.0635223-.0729256-.1058655 0-.042345.0235176-.0776386.0705719-.1035118l.0682182-.0399895c.1388054-.0799923.162323-.124691.1599693-.1482105-.0046959-.0352936-.0329399-.0682335-.0823326-.0964622l-1.0233574-.5904865c-.251709-.1458549-.3081818-.3246346-.1670189-.5316582-.3552361.0823326-.6657715.0493946-.9198456-.0964622l-1.0209885-.5904865c-.049408-.0282288-.1035118-.0446987-.1670341-.047039-.0399895 0-.1176262.0117607-.2564201.0917377l-.0682297.0400028c-.0470543.0282307-.1082077.042345-.1787949.042345-.0729294 0-.1340981-.0141144-.1834908-.042345-.0470543-.0258884-.0729294-.0635223-.0729294-.1058655 0-.0400028.0235214-.0752831.0729294-.1035118l.0541039-.032938c.2070236-.1199818.4140472-.1905556.6093102-.2093792.1999588-.0211639.4116936.032938.6257668.157629l.9715919.5598888c.0611687.0376492.1199837.0611687.1764412.0776367.0517616.0141144.124691.0141144.2164268.0023556.0964622-.0117607.2164459-.049408.3623009-.1105614.0682182-.028244.1364365-.0376492.1999588-.0352936.0635223.0047092.124691.0235195.1787949.0541019.0517464.0305843.0846863.0658779.0917511.1035118.0070496.0376492-.0141144.0752831-.058815.1129322-.1058655.0870419-.1693878.1552601-.1905518.2117176-.0211792.0541039-.0188255.0964622.0070496.1270466.0235329.0305691.0682335.0658627.1293869.1011562l.9715919.5599022c.2164461.1246777.3081819.2446576.2775995.3622838z" fill="#fff"></path></g><g><path d="m45.0148926 21.7512188c0 .0423431-.0235214.0776367-.0729294.1058655l-.0541039.0305843c-.2070236.1223354-.4116936.1929092-.6093102.2117195-.1999588.0188236-.4093361-.0352802-.6234093-.1576157l-.9739494-.5622578c-.0611687-.0352783-.1199837-.0611534-.1740875-.0752678-.0517616-.0141296-.1270447-.0141296-.2164421-.0023556-.096447.0117607-.2187843.0493946-.3646393.1105633-.0658607.0258732-.1317406.0376472-.1976013.0352936-.0658798-.0047112-.1270485-.0235348-.1787949-.0517635-.0541191-.0329247-.0870438-.0682182-.0917549-.1058674-.0070496-.0376339.0117607-.0752678.058815-.1152706.1035118-.0846882.1670341-.1552601.1881981-.2093639.0235367-.0541172.0211792-.0964622-.0046959-.1270466-.0258865-.0305824-.0682297-.0658627-.1317406-.1011562l-.9715919-.5599022c-.2140884-.1246758-.3081818-.2470131-.2752571-.3622837.0329399-.1129322.1552734-.2328987.3622971-.3552341l.0541039-.0305843c.049408-.0282288.1105614-.0423431.1811485-.0423431.0729294 0 .1340981.0141144.1834908.0423431.049408.0282288.0729294.0635223.0729294.1058674 0 .0423431-.0235214.0752811-.0729294.1035118l-.0682183.0399875c-.1364517.0799923-.1599693.124691-.1599693.1482105.0046959.0352936.0329247.0682182.0823326.096447l1.0233574.5904865c.251709.1458569.3105202.3246498.1670189.534029.3575897-.0846882.6657715-.0517635.9174919.0941067l1.0233421.5904713c.049408.0282307.108223.0446987.1693916.0470543.0399895 0 .1176262-.0141144.2540627-.091753l.0682297-.0399876c.0493965-.0282288.1082077-.042345.1811371-.042345.0705872 0 .1340942.0141163.1811485.0399895.049408.0282287.0729294.0658778.0729294.1058673z" fill="#fff"></path></g></g></g></g></g></g></svg>